<?xml version="1.0" encoding="us-ascii" standalone="no"?><svg xmlns="http://www.w3.org/2000/svg" xmlns:xlink="http://www.w3.org/1999/xlink" contentStyleType="text/css" height="5531.25px" preserveAspectRatio="none" style="width:1256px;height:5531px;background:#FFFFFF;" version="1.1" viewBox="0 0 1256 5531" width="1256.25px" zoomAndPan="magnify"><defs/><g><text fill="#000000" font-family="Arial" font-size="43.75" font-weight="bold" lengthAdjust="spacing" textLength="818.75" x="196.875" y="72.287">Modelo de casos de uso - Plants_app</text><!--cluster Plants_app--><g id="cluster_Plants_app"><rect fill="#FBFCFA" height="5375" rx="7.8125" ry="7.8125" style="stroke:#607D6B;stroke-width:3.125;" width="700" x="537.5" y="137.8082"/><text fill="#000000" font-family="Arial" font-size="31.25" font-weight="bold" lengthAdjust="spacing" textLength="171.875" x="801.5625" y="173.3704">Plants_app</text></g><!--cluster Autenticacion--><g id="cluster_Autenticacion"><rect fill="#FBFCFA" height="446.875" rx="7.8125" ry="7.8125" style="stroke:#607D6B;stroke-width:3.125;" width="471.875" x="651.5625" y="256.5582"/><text fill="#000000" font-family="Arial" font-size="31.25" font-weight="bold" lengthAdjust="spacing" textLength="209.375" x="782.8125" y="292.1204">Autenticacion</text></g><!--cluster Plantas y recordatorios--><g id="cluster_Plantas y recordatorios"><rect fill="#FBFCFA" height="900" rx="7.8125" ry="7.8125" style="stroke:#607D6B;stroke-width:3.125;" width="503.125" x="635.9375" y="778.4332"/><text fill="#000000" font-family="Arial" font-size="31.25" font-weight="bold" lengthAdjust="spacing" textLength="356.25" x="709.375" y="813.9954">Plantas y recordatorios</text></g><!--cluster Comunidad--><g id="cluster_Comunidad"><rect fill="#FBFCFA" height="878.125" rx="7.8125" ry="7.8125" style="stroke:#607D6B;stroke-width:3.125;" width="518.75" x="628.125" y="1753.4332"/><text fill="#000000" font-family="Arial" font-size="31.25" font-weight="bold" lengthAdjust="spacing" textLength="171.875" x="801.5625" y="1788.9954">Comunidad</text></g><!--cluster Mensajeria--><g id="cluster_Mensajeria"><rect fill="#FBFCFA" height="350" rx="7.8125" ry="7.8125" style="stroke:#607D6B;stroke-width:3.125;" width="506.25" x="634.375" y="2706.5582"/><text fill="#000000" font-family="Arial" font-size="31.25" font-weight="bold" lengthAdjust="spacing" textLength="175" x="800" y="2742.1204">Mensajeria</text></g><!--cluster Notificaciones--><g id="cluster_Notificaciones"><rect fill="#FBFCFA" height="350" rx="7.8125" ry="7.8125" style="stroke:#607D6B;stroke-width:3.125;" width="525" x="625" y="3131.5582"/><text fill="#000000" font-family="Arial" font-size="31.25" font-weight="bold" lengthAdjust="spacing" textLength="218.75" x="778.125" y="3167.1204">Notificaciones</text></g><!--cluster Perfil y cuenta--><g id="cluster_Perfil y cuenta"><rect fill="#FBFCFA" height="700" rx="7.8125" ry="7.8125" style="stroke:#607D6B;stroke-width:3.125;" width="550" x="612.5" y="3556.5582"/><text fill="#000000" font-family="Arial" font-size="31.25" font-weight="bold" lengthAdjust="spacing" textLength="218.75" x="778.125" y="3592.1204">Perfil y cuenta</text></g><!--cluster Administracion--><g id="cluster_Administracion"><rect fill="#FBFCFA" height="1106.25" rx="7.8125" ry="7.8125" style="stroke:#607D6B;stroke-width:3.125;" width="512.5" x="631.25" y="4331.5582"/><text fill="#000000" font-family="Arial" font-size="31.25" font-weight="bold" lengthAdjust="spacing" textLength="231.25" x="771.875" y="4367.1204">Administracion</text></g><g id="elem_UC1"><ellipse cx="888.2015" cy="393.5735" fill="#F7F9F6" rx="171.014" ry="41.7028" style="stroke:#2E8B57;stroke-width:1.5625;"/><text fill="#263238" font-family="Arial" font-size="31.25" lengthAdjust="spacing" textLength="231.25" x="772.5765" y="398.6684">UC1 Registrarse</text></g><g id="elem_UC2"><ellipse cx="887.1241" cy="499.608" fill="#F7F9F6" rx="185.5616" ry="44.6123" style="stroke:#2E8B57;stroke-width:1.5625;"/><text fill="#263238" font-family="Arial" font-size="31.25" lengthAdjust="spacing" textLength="265.625" x="754.3116" y="504.703">UC2 Iniciar sesion</text></g><g id="elem_UC3"><ellipse cx="887.5682" cy="610.0094" fill="#F7F9F6" rx="182.8807" ry="44.0761" style="stroke:#2E8B57;stroke-width:1.5625;"/><text fill="#263238" font-family="Arial" font-size="31.25" lengthAdjust="spacing" textLength="259.375" x="757.8807" y="615.1043">UC3 Cerrar sesion</text></g><g id="elem_UC4"><ellipse cx="887.8661" cy="921.6314" fill="#F7F9F6" rx="201.9286" ry="47.8857" style="stroke:#2E8B57;stroke-width:1.5625;"/><text fill="#263238" font-family="Arial" font-size="31.25" lengthAdjust="spacing" textLength="303.125" x="736.3036" y="926.7264">UC4 Registrar planta</text></g><g id="elem_UC5"><ellipse cx="887.6381" cy="1035.3358" fill="#F7F9F6" rx="192.3256" ry="45.9651" style="stroke:#2E8B57;stroke-width:1.5625;"/><text fill="#263238" font-family="Arial" font-size="31.25" lengthAdjust="spacing" textLength="281.25" x="747.0131" y="1040.4308">UC5 Detalle planta</text></g><g id="elem_UC6"><ellipse cx="887.3443" cy="1144.6521" fill="#F7F9F6" rx="184.2193" ry="44.3439" style="stroke:#2E8B57;stroke-width:1.5625;"/><text fill="#263238" font-family="Arial" font-size="31.25" lengthAdjust="spacing" textLength="262.5" x="756.0943" y="1149.747">UC6 Editar planta</text></g><g id="elem_UC7"><ellipse cx="888.0479" cy="1254.1678" fill="#F7F9F6" rx="200.5479" ry="47.6096" style="stroke:#2E8B57;stroke-width:1.5625;"/><text fill="#263238" font-family="Arial" font-size="31.25" lengthAdjust="spacing" textLength="300" x="738.0479" y="1259.2627">UC7 Eliminar planta</text></g><g id="elem_UC8"><ellipse cx="888.0473" cy="1366.0427" fill="#F7F9F6" rx="189.6098" ry="45.422" style="stroke:#2E8B57;stroke-width:1.5625;"/><text fill="#263238" font-family="Arial" font-size="31.25" lengthAdjust="spacing" textLength="275" x="750.5473" y="1371.1376">UC8 Buscar / filtrar</text></g><g id="elem_UC9"><ellipse cx="887.6381" cy="1475.9608" fill="#F7F9F6" rx="192.3256" ry="45.9651" style="stroke:#2E8B57;stroke-width:1.5625;"/><text fill="#263238" font-family="Arial" font-size="31.25" lengthAdjust="spacing" textLength="281.25" x="747.0131" y="1481.0558">UC9 Riego manual</text></g><g id="elem_UC10"><ellipse cx="888.0273" cy="1584.4762" fill="#F7F9F6" rx="180.2148" ry="43.543" style="stroke:#2E8B57;stroke-width:1.5625;"/><text fill="#263238" font-family="Arial" font-size="31.25" lengthAdjust="spacing" textLength="253.125" x="761.4648" y="1589.5711">UC10 Calendario</text></g><g id="elem_UC11"><ellipse cx="888.0175" cy="1887.5992" fill="#F7F9F6" rx="164.58" ry="40.416" style="stroke:#2E8B57;stroke-width:1.5625;"/><text fill="#263238" font-family="Arial" font-size="31.25" lengthAdjust="spacing" textLength="215.625" x="780.205" y="1892.6941">UC11 Publicar</text></g><g id="elem_UC12"><ellipse cx="887.1241" cy="1993.358" fill="#F7F9F6" rx="185.5616" ry="44.6123" style="stroke:#2E8B57;stroke-width:1.5625;"/><text fill="#263238" font-family="Arial" font-size="31.25" lengthAdjust="spacing" textLength="265.625" x="754.3116" y="1998.453">UC12 Like / unlike</text></g><g id="elem_UC13"><ellipse cx="887.9403" cy="2100.0838" fill="#F7F9F6" rx="172.3153" ry="41.9631" style="stroke:#2E8B57;stroke-width:1.5625;"/><text fill="#263238" font-family="Arial" font-size="31.25" lengthAdjust="spacing" textLength="234.375" x="770.7528" y="2105.1787">UC13 Comentar</text></g><g id="elem_UC14"><ellipse cx="886.997" cy="2212.0826" fill="#F7F9F6" rx="208.872" ry="49.2744" style="stroke:#2E8B57;stroke-width:1.5625;"/><text fill="#263238" font-family="Arial" font-size="31.25" lengthAdjust="spacing" textLength="318.75" x="727.622" y="2217.1775">UC14 Eliminar propio</text></g><g id="elem_UC15"><ellipse cx="888.0175" cy="2321.9742" fill="#F7F9F6" rx="164.58" ry="40.416" style="stroke:#2E8B57;stroke-width:1.5625;"/><text fill="#263238" font-family="Arial" font-size="31.25" lengthAdjust="spacing" textLength="215.625" x="780.205" y="2327.0691">UC15 Reportar</text></g><g id="elem_UC16"><ellipse cx="886.997" cy="2430.8326" fill="#F7F9F6" rx="208.872" ry="49.2744" style="stroke:#2E8B57;stroke-width:1.5625;"/><text fill="#263238" font-family="Arial" font-size="31.25" lengthAdjust="spacing" textLength="318.75" x="727.622" y="2435.9275">UC16 Buscar usuarios</text></g><g id="elem_UC17"><ellipse cx="887.1756" cy="2541.4933" fill="#F7F9F6" rx="168.4256" ry="41.1851" style="stroke:#2E8B57;stroke-width:1.5625;"/><text fill="#263238" font-family="Arial" font-size="31.25" lengthAdjust="spacing" textLength="225" x="774.6756" y="2546.5883">UC17 Ver perfil</text></g><g id="elem_UC18"><ellipse cx="887.5682" cy="2844.3844" fill="#F7F9F6" rx="182.8807" ry="44.0761" style="stroke:#2E8B57;stroke-width:1.5625;"/><text fill="#263238" font-family="Arial" font-size="31.25" lengthAdjust="spacing" textLength="259.375" x="757.8807" y="2849.4793">UC18 Iniciar chat</text></g><g id="elem_UC19"><ellipse cx="887.687" cy="2956.2831" fill="#F7F9F6" rx="203.312" ry="48.1624" style="stroke:#2E8B57;stroke-width:1.5625;"/><text fill="#263238" font-family="Arial" font-size="31.25" lengthAdjust="spacing" textLength="306.25" x="734.562" y="2961.378">UC19 Enviar / recibir</text></g><g id="elem_UC20"><ellipse cx="887.6836" cy="3269.0949" fill="#F7F9F6" rx="173.6211" ry="42.2242" style="stroke:#2E8B57;stroke-width:1.5625;"/><text fill="#263238" font-family="Arial" font-size="31.25" lengthAdjust="spacing" textLength="237.5" x="768.9336" y="3274.1899">UC20 Ver avisos</text></g><g id="elem_UC21"><ellipse cx="888.0682" cy="3381.6719" fill="#F7F9F6" rx="213.0682" ry="50.1136" style="stroke:#2E8B57;stroke-width:1.5625;"/><text fill="#263238" font-family="Arial" font-size="31.25" lengthAdjust="spacing" textLength="328.125" x="724.0057" y="3386.7668">UC21 Gestionar avisos</text></g><g id="elem_UC22"><ellipse cx="887.3443" cy="3694.6521" fill="#F7F9F6" rx="184.2193" ry="44.3439" style="stroke:#2E8B57;stroke-width:1.5625;"/><text fill="#263238" font-family="Arial" font-size="31.25" lengthAdjust="spacing" textLength="262.5" x="756.0943" y="3699.747">UC22 Editar perfil</text></g><g id="elem_UC23"><ellipse cx="888.2781" cy="3809.2138" fill="#F7F9F6" rx="225.7781" ry="52.6556" style="stroke:#2E8B57;stroke-width:1.5625;"/><text fill="#263238" font-family="Arial" font-size="31.25" lengthAdjust="spacing" textLength="356.25" x="710.1531" y="3814.3088">UC23 Cambiar password</text></g><g id="elem_UC24"><ellipse cx="888.0479" cy="3929.1678" fill="#F7F9F6" rx="200.5479" ry="47.6096" style="stroke:#2E8B57;stroke-width:1.5625;"/><text fill="#263238" font-family="Arial" font-size="31.25" lengthAdjust="spacing" textLength="300" x="738.0479" y="3934.2627">UC24 Exportar datos</text></g><g id="elem_UC25"><ellipse cx="888.0682" cy="4044.1719" fill="#F7F9F6" rx="213.0682" ry="50.1136" style="stroke:#2E8B57;stroke-width:1.5625;"/><text fill="#263238" font-family="Arial" font-size="31.25" lengthAdjust="spacing" textLength="328.125" x="724.0057" y="4049.2668">UC25 Eliminar cuenta</text></g><g id="elem_UC26"><ellipse cx="888.0473" cy="4159.7927" fill="#F7F9F6" rx="189.6098" ry="45.422" style="stroke:#2E8B57;stroke-width:1.5625;"/><text fill="#263238" font-family="Arial" font-size="31.25" lengthAdjust="spacing" textLength="275" x="750.5473" y="4164.8876">UC26 Preferencias</text></g><g id="elem_UC27"><ellipse cx="887.6381" cy="4472.8358" fill="#F7F9F6" rx="192.3256" ry="45.9651" style="stroke:#2E8B57;stroke-width:1.5625;"/><text fill="#263238" font-family="Arial" font-size="31.25" lengthAdjust="spacing" textLength="281.25" x="747.0131" y="4477.9308">UC27 Panel admin</text></g><g id="elem_UC28"><ellipse cx="887.3368" cy="4584.9631" fill="#F7F9F6" rx="206.0868" ry="48.7174" style="stroke:#2E8B57;stroke-width:1.5625;"/><text fill="#263238" font-family="Arial" font-size="31.25" lengthAdjust="spacing" textLength="312.5" x="731.0868" y="4590.058">UC28 Buscar (admin)</text></g><g id="elem_UC29"><ellipse cx="887.7318" cy="4694.1046" fill="#F7F9F6" rx="165.8568" ry="40.6714" style="stroke:#2E8B57;stroke-width:1.5625;"/><text fill="#263238" font-family="Arial" font-size="31.25" lengthAdjust="spacing" textLength="218.75" x="778.3568" y="4699.1995">UC29 Reportes</text></g><g id="elem_UC30"><ellipse cx="887.5106" cy="4803.4353" fill="#F7F9F6" rx="204.6981" ry="48.4396" style="stroke:#2E8B57;stroke-width:1.5625;"/><text fill="#263238" font-family="Arial" font-size="31.25" lengthAdjust="spacing" textLength="309.375" x="732.8231" y="4808.5302">UC30 Eliminar (mod)</text></g><g id="elem_UC31"><ellipse cx="886.7224" cy="4909.5277" fill="#F7F9F6" rx="157.0349" ry="38.907" style="stroke:#2E8B57;stroke-width:1.5625;"/><text fill="#263238" font-family="Arial" font-size="31.25" lengthAdjust="spacing" textLength="196.875" x="788.2849" y="4914.6226">UC31 Banear</text></g><g id="elem_UC32"><ellipse cx="888.2569" cy="5012.6471" fill="#F7F9F6" rx="188.2569" ry="45.1514" style="stroke:#2E8B57;stroke-width:1.5625;"/><text fill="#263238" font-family="Arial" font-size="31.25" lengthAdjust="spacing" textLength="271.875" x="752.3194" y="5017.742">UC32 Aviso formal</text></g><g id="elem_UC33"><ellipse cx="886.9049" cy="5118.3142" fill="#F7F9F6" rx="169.7174" ry="41.4435" style="stroke:#2E8B57;stroke-width:1.5625;"/><text fill="#263238" font-family="Arial" font-size="31.25" lengthAdjust="spacing" textLength="228.125" x="772.8424" y="5123.4091">UC33 Restaurar</text></g><g id="elem_UC34"><ellipse cx="887.0482" cy="5228.3429" fill="#F7F9F6" rx="196.4232" ry="46.7846" style="stroke:#2E8B57;stroke-width:1.5625;"/><text fill="#263238" font-family="Arial" font-size="31.25" lengthAdjust="spacing" textLength="290.625" x="741.7357" y="5233.4378">UC34 Ejecutar cron</text></g><g id="elem_UC35"><ellipse cx="888.0479" cy="5341.6678" fill="#F7F9F6" rx="200.5479" ry="47.6096" style="stroke:#2E8B57;stroke-width:1.5625;"/><text fill="#263238" font-family="Arial" font-size="31.25" lengthAdjust="spacing" textLength="300" x="738.0479" y="5346.7627">UC35 Simular clima</text></g><!--entity USU1--><g id="elem_USU1"><ellipse cx="385.9375" cy="344.0582" fill="#E8EDE6" rx="25" ry="25" style="stroke:#2E8B57;stroke-width:1.5625;"/><path d="M385.9375,369.0582 L385.9375,453.4332 M345.3125,394.0582 L426.5625,394.0582 M385.9375,453.4332 L345.3125,500.3082 M385.9375,453.4332 L426.5625,500.3082 " fill="none" style="stroke:#2E8B57;stroke-width:1.5625;"/><text fill="#000000" font-family="Arial" font-size="31.25" lengthAdjust="spacing" textLength="203.125" x="284.375" y="534.3079">USU1 Usuario</text><text fill="#000000" font-family="Arial" font-size="31.25" lengthAdjust="spacing" textLength="190.625" x="284.375" y="570.2423">no registrado</text></g><!--entity USU2--><g id="elem_USU2"><ellipse cx="385.9375" cy="2219.0582" fill="#E8EDE6" rx="25" ry="25" style="stroke:#2E8B57;stroke-width:1.5625;"/><path d="M385.9375,2244.0582 L385.9375,2328.4332 M345.3125,2269.0582 L426.5625,2269.0582 M385.9375,2328.4332 L345.3125,2375.3082 M385.9375,2328.4332 L426.5625,2375.3082 " fill="none" style="stroke:#2E8B57;stroke-width:1.5625;"/><text fill="#000000" font-family="Arial" font-size="31.25" lengthAdjust="spacing" textLength="203.125" x="284.375" y="2409.3079">USU2 Usuario</text><text fill="#000000" font-family="Arial" font-size="31.25" lengthAdjust="spacing" textLength="143.75" x="284.375" y="2445.2423">registrado</text></g><!--entity USU3--><g id="elem_USU3"><ellipse cx="120.3125" cy="4740.9332" fill="#E8EDE6" rx="25" ry="25" style="stroke:#2E8B57;stroke-width:1.5625;"/><path d="M120.3125,4765.9332 L120.3125,4850.3082 M79.6875,4790.9332 L160.9375,4790.9332 M120.3125,4850.3082 L79.6875,4897.1832 M120.3125,4850.3082 L160.9375,4897.1832 " fill="none" style="stroke:#2E8B57;stroke-width:1.5625;"/><text fill="#000000" font-family="Arial" font-size="31.25" lengthAdjust="spacing" textLength="84.375" x="18.75" y="4931.1829">USU3</text><text fill="#000000" font-family="Arial" font-size="31.25" lengthAdjust="spacing" textLength="203.125" x="18.75" y="4967.1173">Administrador</text></g><!--link USU3 to USU2--><g id="link_USU3_USU2"><path d="M136.8438,4713.777 C181.4375,4280.0895 318.8699,2943.9193 363.5886,2509.138 " fill="none" id="USU3-to-USU2" style="stroke:#181818;stroke-width:3.125;"/><polygon fill="none" points="369.3438,2453.1832,344.937,2507.2197,382.2402,2511.0564,369.3438,2453.1832" style="stroke:#181818;stroke-width:3.125;"/></g><!--link USU1 to UC1--><g id="link_USU1_UC1"><path d="M488.0938,436.5582 C557.2813,429.152 632.3257,421.0896 711.2632,412.6208 " fill="none" id="USU1-to-UC1" style="stroke:#181818;stroke-width:3.125;"/><polygon fill="#181818" points="729.9063,410.6207,700.6083,401.1922,714.3704,412.2875,703.2751,426.0496,729.9063,410.6207" style="stroke:#181818;stroke-width:3.125;"/></g><!--link USU1 to UC2--><g id="link_USU1_UC2"><path d="M488.0938,457.8082 C553.3125,464.8082 621.7011,472.1175 697.6073,480.2738 " fill="none" id="USU1-to-UC2" style="stroke:#181818;stroke-width:3.125;"/><polygon fill="#181818" points="716.25,482.277,689.6214,466.8437,700.7144,480.6077,686.9505,491.7007,716.25,482.277" style="stroke:#181818;stroke-width:3.125;"/></g><!--link USU2 to UC3--><g id="link_USU2_UC3"><path d="M393.3438,2191.7457 C405.4063,1851.9332 443.4062,957.8082 512.5,844.0582 C572.7188,744.9332 675.1702,687.9529 762.5765,652.2967 " fill="none" id="USU2-to-UC3" style="stroke:#181818;stroke-width:3.125;"/><polygon fill="#181818" points="779.9375,645.2145,749.1745,644.2638,765.47,651.1163,758.6174,667.4118,779.9375,645.2145" style="stroke:#181818;stroke-width:3.125;"/></g><!--link USU2 to UC4--><g id="link_USU2_UC4"><path d="M392.125,2191.8395 C400.875,1872.152 430.875,1068.8082 512.5,981.5582 C558.7188,932.152 609.6845,914.4882 676.2157,909.1757 " fill="none" id="USU2-to-UC4" style="stroke:#181818;stroke-width:3.125;"/><polygon fill="#181818" points="694.9063,907.6832,665.8755,897.4615,679.3308,908.9269,667.8654,922.3822,694.9063,907.6832" style="stroke:#181818;stroke-width:3.125;"/></g><!--link USU2 to UC5--><g id="link_USU2_UC5"><path d="M393.25,2191.4332 C404.0938,1890.7145 437.75,1169.5582 512.5,1090.9332 C562.2188,1038.652 619.5813,1021.8667 689.9876,1018.7104 " fill="none" id="USU2-to-UC5" style="stroke:#181818;stroke-width:3.125;"/><polygon fill="#181818" points="708.7188,1017.8707,680.0622,1006.6428,693.1094,1018.5705,681.1818,1031.6177,708.7188,1017.8707" style="stroke:#181818;stroke-width:3.125;"/></g><!--link USU2 to UC6--><g id="link_USU2_UC6"><path d="M394.5938,2191.6207 C407.75,1911.1207 444.9063,1270.7145 512.5,1200.3082 C564.2813,1146.3707 625.384,1130.0151 697.8528,1127.7651 " fill="none" id="USU2-to-UC6" style="stroke:#181818;stroke-width:3.125;"/><polygon fill="#181818" points="716.5938,1127.1832,688.0944,1115.562,700.9763,1127.6681,688.8702,1140.55,716.5938,1127.1832" style="stroke:#181818;stroke-width:3.125;"/></g><!--link USU2 to UC7--><g id="link_USU2_UC7"><path d="M386.3438,2192.1207 C384.125,1948.2145 394.0938,1435.6207 512.5,1312.8082 C559.4688,1264.0895 610.5611,1246.5702 676.9986,1241.1952 " fill="none" id="USU2-to-UC7" style="stroke:#181818;stroke-width:3.125;"/><polygon fill="#181818" points="695.6875,1239.6832,666.6461,1229.4919,680.1134,1240.9432,668.6621,1254.4105,695.6875,1239.6832" style="stroke:#181818;stroke-width:3.125;"/></g><!--link USU2 to UC8--><g id="link_USU2_UC8"><path d="M388.5,2192.2145 C390.4063,1969.4332 407.7188,1528.4332 512.5,1422.1832 C563.1563,1370.8082 620.6458,1354.191 690.927,1350.8785 " fill="none" id="USU2-to-UC8" style="stroke:#181818;stroke-width:3.125;"/><polygon fill="#181818" points="709.6563,1349.9957,680.9739,1338.8337,694.0486,1350.7313,682.1509,1363.806,709.6563,1349.9957" style="stroke:#181818;stroke-width:3.125;"/></g><!--link USU2 to UC9--><g id="link_USU2_UC9"><path d="M391.3438,2191.9645 C397.7188,1991.7145 421.7813,1621.8395 512.5,1531.5582 C562.7188,1481.5895 618.4352,1464.9117 687.5602,1461.068 " fill="none" id="USU2-to-UC9" style="stroke:#181818;stroke-width:3.125;"/><polygon fill="#181818" points="706.2813,1460.027,677.5056,1449.1078,690.6804,1460.8945,678.8936,1474.0692,706.2813,1460.027" style="stroke:#181818;stroke-width:3.125;"/></g><!--link USU2 to UC10--><g id="link_USU2_UC10"><path d="M394.3438,2192.2145 C404.5938,2083.4645 433.3437,1928.8707 512.5,1819.0582 C581.2188,1723.7145 684.6482,1665.7519 769.8357,1628.7207 " fill="none" id="USU2-to-UC10" style="stroke:#181818;stroke-width:3.125;"/><polygon fill="#181818" points="787.0313,1621.2457,756.2546,1620.9945,772.7016,1627.4749,766.2212,1643.9219,787.0313,1621.2457" style="stroke:#181818;stroke-width:3.125;"/></g><!--link USU2 to UC11--><g id="link_USU2_UC11"><path d="M396.875,2192.3395 C409.1563,2107.9645 439.3125,2002.5582 512.5,1940.9332 C572.625,1890.3082 639.7848,1875.9532 713.8785,1874.5157 " fill="none" id="USU2-to-UC11" style="stroke:#181818;stroke-width:3.125;"/><polygon fill="#181818" points="732.625,1874.152,704.2628,1862.1999,717.0029,1874.4551,704.7478,1887.1952,732.625,1874.152" style="stroke:#181818;stroke-width:3.125;"/></g><!--link USU2 to UC12--><g id="link_USU2_UC12"><path d="M419.3438,2191.3082 C437.8438,2139.7145 467,2084.6832 512.5,2050.3082 C566.4063,2009.5582 618.8224,1994.2044 684.4162,1988.4232 " fill="none" id="USU2-to-UC12" style="stroke:#181818;stroke-width:3.125;"/><polygon fill="#181818" points="703.0938,1986.777,673.9799,1976.7945,687.5291,1988.1488,676.1748,2001.698,703.0938,1986.777" style="stroke:#181818;stroke-width:3.125;"/></g><!--link USU2 to UC13--><g id="link_USU2_UC13"><path d="M466.1875,2192.4645 C479.9375,2177.3707 495.375,2163.7145 512.5,2153.4332 C572.9063,2117.1832 629.8089,2103.5428 697.0901,2098.199 " fill="none" id="USU2-to-UC13" style="stroke:#181818;stroke-width:3.125;"/><polygon fill="#181818" points="715.7813,2096.7145,686.7549,2086.4805,700.2053,2097.9516,688.7342,2111.402,715.7813,2096.7145" style="stroke:#181818;stroke-width:3.125;"/></g><!--link USU2 to UC14--><g id="link_USU2_UC14"><path d="M488.2187,2282.6207 C496.375,2279.9332 504.5312,2277.4645 512.5,2275.3082 C573.4688,2258.777 622.797,2248.7955 683.672,2239.0767 " fill="none" id="USU2-to-UC14" style="stroke:#181818;stroke-width:3.125;"/><polygon fill="#181818" points="702.1875,2236.1207,672.4435,2228.2111,686.7579,2238.5841,676.3849,2252.8984,702.1875,2236.1207" style="stroke:#181818;stroke-width:3.125;"/></g><!--link USU2 to UC15--><g id="link_USU2_UC15"><path d="M488.0938,2322.1832 C555.2813,2322.1832 626.9063,2322.1832 704.3438,2322.1832 " fill="none" id="USU2-to-UC15" style="stroke:#181818;stroke-width:3.125;"/><polygon fill="#181818" points="723.0938,2322.1832,694.9688,2309.6832,707.4688,2322.1832,694.9688,2334.6832,723.0938,2322.1832" style="stroke:#181818;stroke-width:3.125;"/></g><!--link USU2 to UC16--><g id="link_USU2_UC16"><path d="M488.2187,2361.7457 C496.375,2364.4332 504.5312,2366.902 512.5,2369.0582 C573.4688,2385.5895 622.797,2395.571 683.672,2405.2897 " fill="none" id="USU2-to-UC16" style="stroke:#181818;stroke-width:3.125;"/><polygon fill="#181818" points="702.1875,2408.2457,676.3849,2391.468,686.7579,2405.7824,672.4435,2416.1554,702.1875,2408.2457" style="stroke:#181818;stroke-width:3.125;"/></g><!--link USU2 to UC17--><g id="link_USU2_UC17"><path d="M468.75,2451.9332 C481.8438,2465.8082 496.4688,2478.277 512.5,2487.8082 C573.9063,2524.277 632.1176,2537.8402 700.0239,2543.059 " fill="none" id="USU2-to-UC17" style="stroke:#181818;stroke-width:3.125;"/><polygon fill="#181818" points="718.7188,2544.4957,691.6343,2529.8774,703.1397,2543.2984,689.7186,2554.8039,718.7188,2544.4957" style="stroke:#181818;stroke-width:3.125;"/></g><!--link USU2 to UC18--><g id="link_USU2_UC18"><path d="M426.375,2453.1832 C445.9688,2505.8707 474.0313,2564.652 512.5,2609.6832 C589.8438,2700.2145 694.0125,2759.4968 776.8875,2798.2155 " fill="none" id="USU2-to-UC18" style="stroke:#181818;stroke-width:3.125;"/><polygon fill="#181818" points="793.875,2806.152,773.6847,2782.9223,779.7188,2799.5383,763.1028,2805.5723,793.875,2806.152" style="stroke:#181818;stroke-width:3.125;"/></g><!--link USU2 to UC19--><g id="link_USU2_UC19"><path d="M400.3438,2452.2457 C416.125,2601.8082 450.0625,2834.4332 512.5,2894.0582 C558.9063,2938.3707 605.6542,2955.7584 668.6542,2963.0084 " fill="none" id="USU2-to-UC19" style="stroke:#181818;stroke-width:3.125;"/><polygon fill="#181818" points="687.2813,2965.152,660.7697,2949.5185,671.7587,2963.3657,657.9116,2974.3546,687.2813,2965.152" style="stroke:#181818;stroke-width:3.125;"/></g><!--link USU2 to UC20--><g id="link_USU2_UC20"><path d="M399,2452.9332 C414.75,2631.902 450.1563,2941.5895 512.5,3034.6832 C578.3125,3132.9645 683.4542,3190.912 769.8292,3227.0683 " fill="none" id="USU2-to-UC20" style="stroke:#181818;stroke-width:3.125;"/><polygon fill="#181818" points="787.125,3234.3082,766.0079,3211.9177,772.7118,3228.2749,756.3546,3234.9788,787.125,3234.3082" style="stroke:#181818;stroke-width:3.125;"/></g><!--link USU2 to UC21--><g id="link_USU2_UC21"><path d="M386.6563,2452.4332 C385.0938,2693.9332 396.25,3197.6832 512.5,3319.0582 C555.5,3363.9645 599.2057,3381.8392 660.5494,3389.4642 " fill="none" id="USU2-to-UC21" style="stroke:#181818;stroke-width:3.125;"/><polygon fill="#181818" points="679.1563,3391.777,652.7879,3375.9032,663.6506,3389.8496,649.7042,3400.7123,679.1563,3391.777" style="stroke:#181818;stroke-width:3.125;"/></g><!--link USU2 to UC22--><g id="link_USU2_UC22"><path d="M389.2188,2452.1207 C391.75,2714.027 409.25,3294.3707 512.5,3459.6832 C573.9375,3558.0582 676.1993,3615.0926 763.1993,3650.9988 " fill="none" id="USU2-to-UC22" style="stroke:#181818;stroke-width:3.125;"/><polygon fill="#181818" points="780.5313,3658.152,759.3022,3635.8677,766.088,3652.191,749.7646,3658.9769,780.5313,3658.152" style="stroke:#181818;stroke-width:3.125;"/></g><!--link USU2 to UC23--><g id="link_USU2_UC23"><path d="M391.5,2452.9332 C398.9063,2786.5895 426.3125,3649.9332 512.5,3744.0582 C551.4688,3786.6207 589.0589,3804.6223 645.9339,3813.9348 " fill="none" id="USU2-to-UC23" style="stroke:#181818;stroke-width:3.125;"/><polygon fill="#181818" points="664.4375,3816.9645,638.7019,3800.0842,649.0178,3814.4397,634.6623,3824.7556,664.4375,3816.9645" style="stroke:#181818;stroke-width:3.125;"/></g><!--link USU2 to UC24--><g id="link_USU2_UC24"><path d="M390.4063,2452.8082 C395.3125,2806.9957 417.3125,3766.0582 512.5,3869.0582 C559.0938,3919.4645 611.3313,3937.1585 678.8,3942.096 " fill="none" id="USU2-to-UC24" style="stroke:#181818;stroke-width:3.125;"/><polygon fill="#181818" points="697.5,3943.4645,670.3623,3928.9451,681.9167,3942.3241,668.5377,3953.8784,697.5,3943.4645" style="stroke:#181818;stroke-width:3.125;"/></g><!--link USU2 to UC25--><g id="link_USU2_UC25"><path d="M389.6875,2452.8082 C392.7188,2824.652 410.3125,3869.4957 512.5,3981.5582 C555.0625,4028.2457 599.7504,4046.4559 662.1254,4053.7059 " fill="none" id="USU2-to-UC25" style="stroke:#181818;stroke-width:3.125;"/><polygon fill="#181818" points="680.75,4055.8707,654.2563,4040.2071,665.2295,4054.0667,651.3699,4065.04,680.75,4055.8707" style="stroke:#181818;stroke-width:3.125;"/></g><!--link USU2 to UC26--><g id="link_USU2_UC26"><path d="M388.9375,2452.3707 C389.8125,2841.9645 401.9375,3979.4332 512.5,4100.3082 C561.9375,4154.3395 620.551,4171.6034 691.926,4174.8847 " fill="none" id="USU2-to-UC26" style="stroke:#181818;stroke-width:3.125;"/><polygon fill="#181818" points="710.6563,4175.7457,683.135,4161.9673,695.0477,4175.0282,681.9869,4186.9409,710.6563,4175.7457" style="stroke:#181818;stroke-width:3.125;"/></g><!--link USU3 to UC27--><g id="link_USU3_UC27"><path d="M222.5938,4734.652 C295.1563,4662.4645 400.2188,4573.277 512.5,4528.4332 C571.3125,4504.9332 620.3776,4493.6185 681.6901,4485.5872 " fill="none" id="USU3-to-UC27" style="stroke:#181818;stroke-width:3.125;"/><polygon fill="#181818" points="700.2813,4483.152,670.771,4474.4107,684.7886,4485.1813,674.018,4499.199,700.2813,4483.152" style="stroke:#181818;stroke-width:3.125;"/></g><!--link USU3 to UC28--><g id="link_USU3_UC28"><path d="M222,4782.2457 C298.4688,4737.1207 408.5625,4678.1207 512.5,4644.0582 C570.9063,4624.9332 618.0178,4614.6066 677.7053,4605.7004 " fill="none" id="USU3-to-UC28" style="stroke:#181818;stroke-width:3.125;"/><polygon fill="#181818" points="696.25,4602.9332,666.5882,4594.7208,680.7961,4605.2392,670.2777,4619.4471,696.25,4602.9332" style="stroke:#181818;stroke-width:3.125;"/></g><!--link USU3 to UC29--><g id="link_USU3_UC29"><path d="M221.9688,4816.5582 C300.25,4795.4332 412.75,4766.6832 512.5,4747.1832 C586.0938,4732.8082 650.0367,4723.0777 718.5992,4714.0152 " fill="none" id="USU3-to-UC29" style="stroke:#181818;stroke-width:3.125;"/><polygon fill="#181818" points="737.1875,4711.5582,707.667,4702.8515,721.6972,4713.6057,710.943,4727.6359,737.1875,4711.5582" style="stroke:#181818;stroke-width:3.125;"/></g><!--link USU3 to UC30--><g id="link_USU3_UC30"><path d="M222.9063,4838.7457 C340.1563,4832.4957 519.0579,4822.9321 667.8391,4814.9946 " fill="none" id="USU3-to-UC30" style="stroke:#181818;stroke-width:3.125;"/><polygon fill="#181818" points="686.5625,4813.9957,657.8115,4803.0118,670.9597,4814.8281,659.1434,4827.9763,686.5625,4813.9957" style="stroke:#181818;stroke-width:3.125;"/></g><!--link USU3 to UC31--><g id="link_USU3_UC31"><path d="M222.9063,4852.652 C354.25,4863.9645 567.8194,4882.3841 719.2256,4895.4466 " fill="none" id="USU3-to-UC31" style="stroke:#181818;stroke-width:3.125;"/><polygon fill="#181818" points="737.9063,4897.0582,710.9598,4882.187,722.3391,4895.7152,708.8109,4907.0945,737.9063,4897.0582" style="stroke:#181818;stroke-width:3.125;"/></g><!--link USU3 to UC32--><g id="link_USU3_UC32"><path d="M222.5938,4875.3707 C300.75,4899.1832 412.7813,4931.527 512.5,4953.4332 C580.8125,4968.4332 638.458,4978.4917 703.9893,4988.3355 " fill="none" id="USU3-to-UC32" style="stroke:#181818;stroke-width:3.125;"/><polygon fill="#181818" points="722.5313,4991.1207,696.5751,4974.5815,707.0796,4988.7997,692.8614,4999.3041,722.5313,4991.1207" style="stroke:#181818;stroke-width:3.125;"/></g><!--link USU3 to UC33--><g id="link_USU3_UC33"><path d="M222.6563,4912.3395 C242.8125,4925.4332 264.0313,4938.652 284.375,4950.3082 C382.4375,5006.5582 404.6563,5028.9645 512.5,5062.8082 C580.7188,5084.2145 640.0174,5095.3144 706.8299,5103.5956 " fill="none" id="USU3-to-UC33" style="stroke:#181818;stroke-width:3.125;"/><polygon fill="#181818" points="725.4375,5105.902,699.0637,5090.0374,709.9312,5103.98,695.9885,5114.8475,725.4375,5105.902" style="stroke:#181818;stroke-width:3.125;"/></g><!--link USU3 to UC34--><g id="link_USU3_UC34"><path d="M206.5625,4973.8395 C229.4063,5003.402 255.8438,5032.9957 284.375,5056.5582 C401.3438,5153.152 551.2547,5192.8182 679.9109,5211.3807 " fill="none" id="USU3-to-UC34" style="stroke:#181818;stroke-width:3.125;"/><polygon fill="#181818" points="698.4688,5214.0582,672.417,5197.6701,683.0039,5211.827,668.847,5222.4138,698.4688,5214.0582" style="stroke:#181818;stroke-width:3.125;"/></g><!--link USU3 to UC35--><g id="link_USU3_UC35"><path d="M166.3438,4974.2457 C192.5313,5038.1207 231.2813,5112.5582 284.375,5165.9332 C391.125,5273.2457 541.08,5313.2824 672.3925,5329.5636 " fill="none" id="USU3-to-UC35" style="stroke:#181818;stroke-width:3.125;"/><polygon fill="#181818" points="691,5331.8707,664.6268,5316.005,675.4937,5329.9481,661.5506,5340.8151,691,5331.8707" style="stroke:#181818;stroke-width:3.125;"/></g><!--SRC=[XLPDZzis4BthLmpSGxS7eoPfo_Pb0Tjh5mMQO975zXIWu4gqbrcA54WfQThcltVqJJfqwuFXePw6RsRUpBYIbHBmpkH26SW5PDmPr_oedO4vF2gkA_S7Byj4YNC5bG4hBwyLvDAAh9969ubxaxhabXUGbnBOOk6Tk5UUcozIN-3CbHC-LfnvhQgJqTLxNWZOMSbL_FcJ_4i0yTrgvEj42QbtPhb-Qywe3onvziOlugdwYb4sZBc-A9z6xGI6BE3l1F2pH_Z5cbhd1wECXHzEwzFsb7RFZCs5xS_fSRDVhTlpXk5mcZBADkFfmFkRTn_FAaJUkEsuEJuS__-scDy-q9jnx4-7q-vxp-bY_P3khpoJoMxpzc9KZfSbFyAkOIzSqaKnUtvw9l3iQcwb-QWrQaDSfAiirdm6t47ptCFI2Viza7f0zb7lyaBg7c8734kQBvZF_xdlNad6ai9iakeCiz26C2HbjgiheIkPyGmLE-kJr7o6yi-U3mG-zAIi4zsD1n83KlXLoqno2qwurb-BfJ4iWuEmzXhAMkYtAv9j0FZyQoDKB1B7T4ZZRj1TJdIXRD_idIzZw1KyY8ehp5E0NSMmAHnpMLsxJMFGDHoLn49TWzSny0RsjSiG-ZESfMg8z-XD3Bs53r9S31HSrrpro6sqS0iuS2LqtaXhADmYckA3AMejSvxVqW21n_f5eL06RYGg0KBXD_acC99QA_mnWACQ82W2Kw3-9gSiYbjwsRIcd8A9bfIiK06biPxRQ3b9EkIzxhhF3V1eISaQVXT8G5Wiqe1SHxFvJcZ7FmaStBVIkHbR9NlbrU0jMc-oXQF-B5jveFxbYnp3saPlVsygUUvRMjpg4hfee-6VfHlZfeieai0lmZKRZL_ZIRnTsmnXjsQrQ9KV9q37Rl8pIgDAeQWKNhmqIIYvSrzm20pug68eAkRFJWBGZ8kHSLGmT3NfQ-3SmQEweIayMd4MLcYiuEWwZIPZ6jV_CM7f6Xwv5WfuWnuSHcS57OV5NGl-QK17jKEtVIk8aMPqKh35b86xmkI3LnPL12EuHxKOsuj5Hm6Zi6lK0cTZYt5GiVWsOCZJLRoUPX-B5fPXOJ-9h6uAczbfRqJhobRm98jQDLYCRgWgM_MLQZTtkuhRVJsVtxURpJDeZw19kwMxG-ORIzzO-KRg6slVsFZ6rZTmEliM2Qo010bOa8062NYGW0W9c9202Wcuq80B3RZGW0iDkD202msuO9Dq2MLm9ro9qmm7LVUtkbFpy3_clci0tze4rjQts2AmI63Hm6A1jGoiLV8l]--></g></svg>