<?xml version="1.0" encoding="us-ascii" standalone="no"?><svg xmlns="http://www.w3.org/2000/svg" xmlns:xlink="http://www.w3.org/1999/xlink" contentStyleType="text/css" height="4221.875px" preserveAspectRatio="none" style="width:3931px;height:4221px;background:#FFFFFF;" version="1.1" viewBox="0 0 3931 4221" width="3931.25px" zoomAndPan="magnify"><defs/><g><text fill="#000000" font-family="Arial" font-size="43.75" font-weight="bold" lengthAdjust="spacing" textLength="915.625" x="1485.9375" y="72.287">Modelo de clases de analisis - Plants_app</text><!--class Usuario--><g id="elem_Usuario"><rect codeLine="12" fill="#F7F9F6" height="854.3152" id="Usuario" rx="7.8125" ry="7.8125" style="stroke:#2E8B57;stroke-width:1.5625;" width="650" x="1718.75" y="137.8082"/><ellipse cx="1955.4688" cy="187.8082" fill="#ADD1B2" rx="34.375" ry="34.375" style="stroke:#181818;stroke-width:3.125;"/><path d="M1964.1113,174.9176 Q1964.5996,174.234 1965.1855,173.8922 Q1965.7715,173.5504 1966.4551,173.5504 Q1967.627,173.5504 1968.3594,174.3805 Q1969.0918,175.1617 1969.0918,177.066 L1969.0918,181.6071 Q1969.0918,183.5114 1968.3594,184.3414 Q1967.627,185.1715 1966.4551,185.1715 Q1965.3809,185.1715 1964.7461,184.5367 Q1964.1113,183.9508 1963.7695,182.3395 Q1963.623,181.2164 1963.0371,180.6305 Q1962.0117,179.4586 1960.1074,178.775 Q1958.2031,178.0914 1956.25,178.0914 Q1953.8574,178.0914 1951.8555,179.1168 Q1949.9023,180.1422 1948.3398,182.486 Q1946.8262,184.8297 1946.8262,188.0524 L1946.8262,191.4703 Q1946.8262,195.3278 1949.6094,197.9156 Q1952.3926,200.4547 1957.373,200.4547 Q1960.3027,200.4547 1962.3535,199.6735 Q1963.5742,199.1852 1964.8926,197.818 Q1965.7227,196.9879 1966.1621,196.7438 Q1966.6504,196.4996 1967.2852,196.4996 Q1968.3105,196.4996 1969.0918,197.3297 Q1969.9219,198.111 1969.9219,199.1852 Q1969.9219,200.2594 1968.8477,201.5289 Q1967.2852,203.3356 1964.7949,204.361 Q1961.4258,205.777 1957.373,205.777 Q1952.6367,205.777 1948.877,203.8239 Q1945.8008,202.2614 1943.6523,198.941 Q1941.5039,195.5719 1941.5039,191.568 L1941.5039,187.9547 Q1941.5039,183.8043 1943.4082,180.2399 Q1945.3613,176.6266 1948.7793,174.7223 Q1952.1973,172.7692 1956.0547,172.7692 Q1958.3496,172.7692 1960.3516,173.3063 Q1962.4023,173.7946 1964.1113,174.9176 Z " fill="#000000"/><text fill="#263238" font-family="Arial" font-size="43.75" lengthAdjust="spacing" textLength="150" x="2019.5313" y="203.6911">Usuario</text><line style="stroke:#2E8B57;stroke-width:1.5625;" x1="1721.875" x2="2365.625" y1="237.8082" y2="237.8082"/><rect fill="none" height="18.75" style="stroke:#C82930;stroke-width:3.125;" width="18.75" x="1743.75" y="270.7748"/><text fill="#000000" font-family="Arial" font-size="43.75" lengthAdjust="spacing" textLength="187.5" x="1781.25" y="291.3452">id : String</text><rect fill="none" height="18.75" style="stroke:#C82930;stroke-width:3.125;" width="18.75" x="1743.75" y="321.0831"/><text fill="#000000" font-family="Arial" font-size="43.75" lengthAdjust="spacing" textLength="303.125" x="1781.25" y="341.6534">nombre : String</text><rect fill="none" height="18.75" style="stroke:#C82930;stroke-width:3.125;" width="18.75" x="1743.75" y="371.3913"/><text fill="#000000" font-family="Arial" font-size="43.75" lengthAdjust="spacing" textLength="256.25" x="1781.25" y="391.9617">email : String</text><rect fill="none" height="18.75" style="stroke:#C82930;stroke-width:3.125;" width="18.75" x="1743.75" y="421.6995"/><text fill="#000000" font-family="Arial" font-size="43.75" lengthAdjust="spacing" textLength="228.125" x="1781.25" y="442.2699">foto : String</text><rect fill="none" height="18.75" style="stroke:#C82930;stroke-width:3.125;" width="18.75" x="1743.75" y="472.0078"/><text fill="#000000" font-family="Arial" font-size="43.75" lengthAdjust="spacing" textLength="293.75" x="1781.25" y="492.5781">banner : String</text><rect fill="none" height="18.75" style="stroke:#C82930;stroke-width:3.125;" width="18.75" x="1743.75" y="522.316"/><text fill="#000000" font-family="Arial" font-size="43.75" lengthAdjust="spacing" textLength="325" x="1781.25" y="542.8864">biografia : String</text><rect fill="none" height="18.75" style="stroke:#C82930;stroke-width:3.125;" width="18.75" x="1743.75" y="572.6242"/><text fill="#000000" font-family="Arial" font-size="43.75" lengthAdjust="spacing" textLength="340.625" x="1781.25" y="593.1946">ubicacion : String</text><rect fill="none" height="18.75" style="stroke:#C82930;stroke-width:3.125;" width="18.75" x="1743.75" y="622.9324"/><text fill="#000000" font-family="Arial" font-size="43.75" lengthAdjust="spacing" textLength="312.5" x="1781.25" y="643.5028">latitud : Decimal</text><rect fill="none" height="18.75" style="stroke:#C82930;stroke-width:3.125;" width="18.75" x="1743.75" y="673.2407"/><text fill="#000000" font-family="Arial" font-size="43.75" lengthAdjust="spacing" textLength="350" x="1781.25" y="693.811">longitud : Decimal</text><rect fill="none" height="18.75" style="stroke:#C82930;stroke-width:3.125;" width="18.75" x="1743.75" y="723.5489"/><text fill="#000000" font-family="Arial" font-size="43.75" lengthAdjust="spacing" textLength="446.875" x="1781.25" y="744.1193">perfilPrivado : Boolean</text><rect fill="none" height="18.75" style="stroke:#C82930;stroke-width:3.125;" width="18.75" x="1743.75" y="773.8571"/><text fill="#000000" font-family="Arial" font-size="43.75" lengthAdjust="spacing" textLength="568.75" x="1781.25" y="794.4275">notificacionesPush : Boolean</text><rect fill="none" height="18.75" style="stroke:#C82930;stroke-width:3.125;" width="18.75" x="1743.75" y="824.1653"/><text fill="#000000" font-family="Arial" font-size="43.75" lengthAdjust="spacing" textLength="521.875" x="1781.25" y="844.7357">rolAdministrador : Boolean</text><rect fill="none" height="18.75" style="stroke:#C82930;stroke-width:3.125;" width="18.75" x="1743.75" y="874.4736"/><text fill="#000000" font-family="Arial" font-size="43.75" lengthAdjust="spacing" textLength="450" x="1781.25" y="895.0439">baneadoHasta : Fecha</text><rect fill="none" height="18.75" style="stroke:#C82930;stroke-width:3.125;" width="18.75" x="1743.75" y="924.7818"/><text fill="#000000" font-family="Arial" font-size="43.75" lengthAdjust="spacing" textLength="450" x="1781.25" y="945.3522">fechaCreacion : Fecha</text><line style="stroke:#2E8B57;stroke-width:1.5625;" x1="1721.875" x2="2365.625" y1="967.1234" y2="967.1234"/></g><!--class Planta--><g id="elem_Planta"><rect codeLine="29" fill="#F7F9F6" height="653.0823" id="Planta" rx="7.8125" ry="7.8125" style="stroke:#2E8B57;stroke-width:1.5625;" width="571.875" x="257.8125" y="1919.0582"/><ellipse cx="467.9688" cy="1969.0582" fill="#ADD1B2" rx="34.375" ry="34.375" style="stroke:#181818;stroke-width:3.125;"/><path d="M476.6113,1956.1676 Q477.0996,1955.484 477.6855,1955.1422 Q478.2715,1954.8004 478.9551,1954.8004 Q480.127,1954.8004 480.8594,1955.6305 Q481.5918,1956.4117 481.5918,1958.316 L481.5918,1962.8571 Q481.5918,1964.7614 480.8594,1965.5914 Q480.127,1966.4215 478.9551,1966.4215 Q477.8809,1966.4215 477.2461,1965.7867 Q476.6113,1965.2008 476.2695,1963.5895 Q476.123,1962.4664 475.5371,1961.8805 Q474.5117,1960.7086 472.6074,1960.025 Q470.7031,1959.3414 468.75,1959.3414 Q466.3574,1959.3414 464.3555,1960.3668 Q462.4023,1961.3922 460.8398,1963.736 Q459.3262,1966.0797 459.3262,1969.3024 L459.3262,1972.7203 Q459.3262,1976.5778 462.1094,1979.1656 Q464.8926,1981.7047 469.873,1981.7047 Q472.8027,1981.7047 474.8535,1980.9235 Q476.0742,1980.4352 477.3926,1979.068 Q478.2227,1978.2379 478.6621,1977.9938 Q479.1504,1977.7496 479.7852,1977.7496 Q480.8105,1977.7496 481.5918,1978.5797 Q482.4219,1979.361 482.4219,1980.4352 Q482.4219,1981.5094 481.3477,1982.7789 Q479.7852,1984.5856 477.2949,1985.611 Q473.9258,1987.027 469.873,1987.027 Q465.1367,1987.027 461.377,1985.0739 Q458.3008,1983.5114 456.1523,1980.191 Q454.0039,1976.8219 454.0039,1972.818 L454.0039,1969.2047 Q454.0039,1965.0543 455.9082,1961.4899 Q457.8613,1957.8766 461.2793,1955.9723 Q464.6973,1954.0192 468.5547,1954.0192 Q470.8496,1954.0192 472.8516,1954.5563 Q474.9023,1955.0446 476.6113,1956.1676 Z " fill="#000000"/><text fill="#263238" font-family="Arial" font-size="43.75" lengthAdjust="spacing" textLength="125" x="532.0313" y="1984.9411">Planta</text><line style="stroke:#2E8B57;stroke-width:1.5625;" x1="260.9375" x2="826.5625" y1="2019.0582" y2="2019.0582"/><rect fill="none" height="18.75" style="stroke:#C82930;stroke-width:3.125;" width="18.75" x="282.8125" y="2052.0248"/><text fill="#000000" font-family="Arial" font-size="43.75" lengthAdjust="spacing" textLength="187.5" x="320.3125" y="2072.5952">id : String</text><rect fill="none" height="18.75" style="stroke:#C82930;stroke-width:3.125;" width="18.75" x="282.8125" y="2102.3331"/><text fill="#000000" font-family="Arial" font-size="43.75" lengthAdjust="spacing" textLength="303.125" x="320.3125" y="2122.9034">nombre : String</text><rect fill="none" height="18.75" style="stroke:#C82930;stroke-width:3.125;" width="18.75" x="282.8125" y="2152.6413"/><text fill="#000000" font-family="Arial" font-size="43.75" lengthAdjust="spacing" textLength="228.125" x="320.3125" y="2173.2117">foto : String</text><rect fill="none" height="18.75" style="stroke:#C82930;stroke-width:3.125;" width="18.75" x="282.8125" y="2202.9495"/><text fill="#000000" font-family="Arial" font-size="43.75" lengthAdjust="spacing" textLength="340.625" x="320.3125" y="2223.5199">ubicacion : String</text><rect fill="none" height="18.75" style="stroke:#C82930;stroke-width:3.125;" width="18.75" x="282.8125" y="2253.2578"/><text fill="#000000" font-family="Arial" font-size="43.75" lengthAdjust="spacing" textLength="490.625" x="320.3125" y="2273.8281">frecuenciaRiego : Entero</text><rect fill="none" height="18.75" style="stroke:#C82930;stroke-width:3.125;" width="18.75" x="282.8125" y="2303.566"/><text fill="#000000" font-family="Arial" font-size="43.75" lengthAdjust="spacing" textLength="425" x="320.3125" y="2324.1364">necesidadLuz : String</text><rect fill="none" height="18.75" style="stroke:#C82930;stroke-width:3.125;" width="18.75" x="282.8125" y="2353.8742"/><text fill="#000000" font-family="Arial" font-size="43.75" lengthAdjust="spacing" textLength="262.5" x="320.3125" y="2374.4446">notas : String</text><rect fill="none" height="18.75" style="stroke:#C82930;stroke-width:3.125;" width="18.75" x="282.8125" y="2404.1824"/><text fill="#000000" font-family="Arial" font-size="43.75" lengthAdjust="spacing" textLength="431.25" x="320.3125" y="2424.7528">proximoRiego : Fecha</text><rect fill="none" height="18.75" style="stroke:#C82930;stroke-width:3.125;" width="18.75" x="282.8125" y="2454.4907"/><text fill="#000000" font-family="Arial" font-size="43.75" lengthAdjust="spacing" textLength="418.75" x="320.3125" y="2475.061">proximaPoda : Fecha</text><rect fill="none" height="18.75" style="stroke:#C82930;stroke-width:3.125;" width="18.75" x="282.8125" y="2504.7989"/><text fill="#000000" font-family="Arial" font-size="43.75" lengthAdjust="spacing" textLength="450" x="320.3125" y="2525.3693">fechaCreacion : Fecha</text><line style="stroke:#2E8B57;stroke-width:1.5625;" x1="260.9375" x2="826.5625" y1="2547.1405" y2="2547.1405"/></g><!--class EspeciePlanta--><g id="elem_EspeciePlanta"><rect codeLine="42" fill="#F7F9F6" height="854.3152" id="EspeciePlanta" rx="7.8125" ry="7.8125" style="stroke:#2E8B57;stroke-width:1.5625;" width="675" x="21.875" y="2809.6832"/><ellipse cx="205.4688" cy="2859.6832" fill="#ADD1B2" rx="34.375" ry="34.375" style="stroke:#181818;stroke-width:3.125;"/><path d="M214.1113,2846.7926 Q214.5996,2846.109 215.1855,2845.7672 Q215.7715,2845.4254 216.4551,2845.4254 Q217.627,2845.4254 218.3594,2846.2555 Q219.0918,2847.0367 219.0918,2848.941 L219.0918,2853.4821 Q219.0918,2855.3864 218.3594,2856.2164 Q217.627,2857.0465 216.4551,2857.0465 Q215.3809,2857.0465 214.7461,2856.4117 Q214.1113,2855.8258 213.7695,2854.2145 Q213.623,2853.0914 213.0371,2852.5055 Q212.0117,2851.3336 210.1074,2850.65 Q208.2031,2849.9664 206.25,2849.9664 Q203.8574,2849.9664 201.8555,2850.9918 Q199.9023,2852.0172 198.3398,2854.361 Q196.8262,2856.7047 196.8262,2859.9274 L196.8262,2863.3453 Q196.8262,2867.2028 199.6094,2869.7906 Q202.3926,2872.3297 207.373,2872.3297 Q210.3027,2872.3297 212.3535,2871.5485 Q213.5742,2871.0602 214.8926,2869.693 Q215.7227,2868.8629 216.1621,2868.6188 Q216.6504,2868.3746 217.2852,2868.3746 Q218.3105,2868.3746 219.0918,2869.2047 Q219.9219,2869.986 219.9219,2871.0602 Q219.9219,2872.1344 218.8477,2873.4039 Q217.2852,2875.2106 214.7949,2876.236 Q211.4258,2877.652 207.373,2877.652 Q202.6367,2877.652 198.877,2875.6989 Q195.8008,2874.1364 193.6523,2870.816 Q191.5039,2867.4469 191.5039,2863.443 L191.5039,2859.8297 Q191.5039,2855.6793 193.4082,2852.1149 Q195.3613,2848.5016 198.7793,2846.5973 Q202.1973,2844.6442 206.0547,2844.6442 Q208.3496,2844.6442 210.3516,2845.1813 Q212.4023,2845.6696 214.1113,2846.7926 Z " fill="#000000"/><text fill="#263238" font-family="Arial" font-size="43.75" lengthAdjust="spacing" textLength="281.25" x="269.5313" y="2875.5661">EspeciePlanta</text><line style="stroke:#2E8B57;stroke-width:1.5625;" x1="25" x2="693.75" y1="2909.6832" y2="2909.6832"/><rect fill="none" height="18.75" style="stroke:#C82930;stroke-width:3.125;" width="18.75" x="46.875" y="2942.6498"/><text fill="#000000" font-family="Arial" font-size="43.75" lengthAdjust="spacing" textLength="187.5" x="84.375" y="2963.2202">id : String</text><rect fill="none" height="18.75" style="stroke:#C82930;stroke-width:3.125;" width="18.75" x="46.875" y="2992.9581"/><text fill="#000000" font-family="Arial" font-size="43.75" lengthAdjust="spacing" textLength="303.125" x="84.375" y="3013.5284">nombre : String</text><rect fill="none" height="18.75" style="stroke:#C82930;stroke-width:3.125;" width="18.75" x="46.875" y="3043.2663"/><text fill="#000000" font-family="Arial" font-size="43.75" lengthAdjust="spacing" textLength="484.375" x="84.375" y="3063.8367">nombreCientifico : String</text><rect fill="none" height="18.75" style="stroke:#C82930;stroke-width:3.125;" width="18.75" x="46.875" y="3093.5745"/><text fill="#000000" font-family="Arial" font-size="43.75" lengthAdjust="spacing" textLength="296.875" x="84.375" y="3114.1449">imagen : String</text><rect fill="none" height="18.75" style="stroke:#C82930;stroke-width:3.125;" width="18.75" x="46.875" y="3143.8828"/><text fill="#000000" font-family="Arial" font-size="43.75" lengthAdjust="spacing" textLength="493.75" x="84.375" y="3164.4531">diasEntreRiegos : Entero</text><rect fill="none" height="18.75" style="stroke:#C82930;stroke-width:3.125;" width="18.75" x="46.875" y="3194.191"/><text fill="#000000" font-family="Arial" font-size="43.75" lengthAdjust="spacing" textLength="425" x="84.375" y="3214.7614">necesidadLuz : String</text><rect fill="none" height="18.75" style="stroke:#C82930;stroke-width:3.125;" width="18.75" x="46.875" y="3244.4992"/><text fill="#000000" font-family="Arial" font-size="43.75" lengthAdjust="spacing" textLength="593.75" x="84.375" y="3265.0696">climaCompatible : List&lt;String&gt;</text><rect fill="none" height="18.75" style="stroke:#C82930;stroke-width:3.125;" width="18.75" x="46.875" y="3294.8074"/><text fill="#000000" font-family="Arial" font-size="43.75" lengthAdjust="spacing" textLength="446.875" x="84.375" y="3315.3778">consejos : List&lt;String&gt;</text><rect fill="none" height="18.75" style="stroke:#C82930;stroke-width:3.125;" width="18.75" x="46.875" y="3345.1157"/><text fill="#000000" font-family="Arial" font-size="43.75" lengthAdjust="spacing" textLength="468.75" x="84.375" y="3365.686">requierePoda : Boolean</text><rect fill="none" height="18.75" style="stroke:#C82930;stroke-width:3.125;" width="18.75" x="46.875" y="3395.4239"/><text fill="#000000" font-family="Arial" font-size="43.75" lengthAdjust="spacing" textLength="518.75" x="84.375" y="3415.9943">mesesPoda : List&lt;Entero&gt;</text><rect fill="none" height="18.75" style="stroke:#C82930;stroke-width:3.125;" width="18.75" x="46.875" y="3445.7321"/><text fill="#000000" font-family="Arial" font-size="43.75" lengthAdjust="spacing" textLength="443.75" x="84.375" y="3466.3025">producFruto : Boolean</text><rect fill="none" height="18.75" style="stroke:#C82930;stroke-width:3.125;" width="18.75" x="46.875" y="3496.0403"/><text fill="#000000" font-family="Arial" font-size="43.75" lengthAdjust="spacing" textLength="590.625" x="84.375" y="3516.6107">mesesCosecha : List&lt;Entero&gt;</text><rect fill="none" height="18.75" style="stroke:#C82930;stroke-width:3.125;" width="18.75" x="46.875" y="3546.3486"/><text fill="#000000" font-family="Arial" font-size="43.75" lengthAdjust="spacing" textLength="559.375" x="84.375" y="3566.9189">ajusteEstacionalRiego : Map</text><rect fill="none" height="18.75" style="stroke:#C82930;stroke-width:3.125;" width="18.75" x="46.875" y="3596.6568"/><text fill="#000000" font-family="Arial" font-size="43.75" lengthAdjust="spacing" textLength="525" x="84.375" y="3617.2272">lluviaMinima_mm : Decimal</text><line style="stroke:#2E8B57;stroke-width:1.5625;" x1="25" x2="693.75" y1="3638.9984" y2="3638.9984"/></g><!--class Recordatorio--><g id="elem_Recordatorio"><rect codeLine="59" fill="#F7F9F6" height="401.5411" id="Recordatorio" rx="7.8125" ry="7.8125" style="stroke:#2E8B57;stroke-width:1.5625;" width="512.5" x="806.25" y="3036.2457"/><ellipse cx="923.4375" cy="3086.2457" fill="#ADD1B2" rx="34.375" ry="34.375" style="stroke:#181818;stroke-width:3.125;"/><path d="M932.0801,3073.3551 Q932.5684,3072.6715 933.1543,3072.3297 Q933.7402,3071.9879 934.4238,3071.9879 Q935.5957,3071.9879 936.3281,3072.818 Q937.0605,3073.5992 937.0605,3075.5035 L937.0605,3080.0446 Q937.0605,3081.9489 936.3281,3082.7789 Q935.5957,3083.609 934.4238,3083.609 Q933.3496,3083.609 932.7148,3082.9742 Q932.0801,3082.3883 931.7383,3080.777 Q931.5918,3079.6539 931.0059,3079.068 Q929.9805,3077.8961 928.0762,3077.2125 Q926.1719,3076.5289 924.2188,3076.5289 Q921.8262,3076.5289 919.8242,3077.5543 Q917.8711,3078.5797 916.3086,3080.9235 Q914.7949,3083.2672 914.7949,3086.4899 L914.7949,3089.9078 Q914.7949,3093.7653 917.5781,3096.3531 Q920.3613,3098.8922 925.3418,3098.8922 Q928.2715,3098.8922 930.3223,3098.111 Q931.543,3097.6227 932.8613,3096.2555 Q933.6914,3095.4254 934.1309,3095.1813 Q934.6191,3094.9371 935.2539,3094.9371 Q936.2793,3094.9371 937.0605,3095.7672 Q937.8906,3096.5485 937.8906,3097.6227 Q937.8906,3098.6969 936.8164,3099.9664 Q935.2539,3101.7731 932.7637,3102.7985 Q929.3945,3104.2145 925.3418,3104.2145 Q920.6055,3104.2145 916.8457,3102.2614 Q913.7695,3100.6989 911.6211,3097.3785 Q909.4727,3094.0094 909.4727,3090.0055 L909.4727,3086.3922 Q909.4727,3082.2418 911.377,3078.6774 Q913.3301,3075.0641 916.748,3073.1598 Q920.166,3071.2067 924.0234,3071.2067 Q926.3184,3071.2067 928.3203,3071.7438 Q930.3711,3072.2321 932.0801,3073.3551 Z " fill="#000000"/><text fill="#263238" font-family="Arial" font-size="43.75" lengthAdjust="spacing" textLength="256.25" x="982.8125" y="3102.1286">Recordatorio</text><line style="stroke:#2E8B57;stroke-width:1.5625;" x1="809.375" x2="1315.625" y1="3136.2457" y2="3136.2457"/><rect fill="none" height="18.75" style="stroke:#C82930;stroke-width:3.125;" width="18.75" x="831.25" y="3169.2123"/><text fill="#000000" font-family="Arial" font-size="43.75" lengthAdjust="spacing" textLength="187.5" x="868.75" y="3189.7827">id : String</text><rect fill="none" height="18.75" style="stroke:#C82930;stroke-width:3.125;" width="18.75" x="831.25" y="3219.5206"/><text fill="#000000" font-family="Arial" font-size="43.75" lengthAdjust="spacing" textLength="225" x="868.75" y="3240.0909">tipo : String</text><rect fill="none" height="18.75" style="stroke:#C82930;stroke-width:3.125;" width="18.75" x="831.25" y="3269.8288"/><text fill="#000000" font-family="Arial" font-size="43.75" lengthAdjust="spacing" textLength="431.25" x="868.75" y="3290.3992">fechaPrevista : Fecha</text><rect fill="none" height="18.75" style="stroke:#C82930;stroke-width:3.125;" width="18.75" x="831.25" y="3320.137"/><text fill="#000000" font-family="Arial" font-size="43.75" lengthAdjust="spacing" textLength="318.75" x="868.75" y="3340.7074">mensaje : String</text><rect fill="none" height="18.75" style="stroke:#C82930;stroke-width:3.125;" width="18.75" x="831.25" y="3370.4453"/><text fill="#000000" font-family="Arial" font-size="43.75" lengthAdjust="spacing" textLength="428.125" x="868.75" y="3391.0156">completado : Boolean</text><line style="stroke:#2E8B57;stroke-width:1.5625;" x1="809.375" x2="1315.625" y1="3412.7869" y2="3412.7869"/></g><!--class HistorialRecordatorio--><g id="elem_HistorialRecordatorio"><rect codeLine="67" fill="#F7F9F6" height="300.9247" id="HistorialRecordatorio" rx="7.8125" ry="7.8125" style="stroke:#2E8B57;stroke-width:1.5625;" width="515.625" x="804.6875" y="3900.3082"/><ellipse cx="852.9688" cy="3950.3082" fill="#ADD1B2" rx="34.375" ry="34.375" style="stroke:#181818;stroke-width:3.125;"/><path d="M861.6113,3937.4176 Q862.0996,3936.734 862.6855,3936.3922 Q863.2715,3936.0504 863.9551,3936.0504 Q865.127,3936.0504 865.8594,3936.8805 Q866.5918,3937.6617 866.5918,3939.566 L866.5918,3944.1071 Q866.5918,3946.0114 865.8594,3946.8414 Q865.127,3947.6715 863.9551,3947.6715 Q862.8809,3947.6715 862.2461,3947.0367 Q861.6113,3946.4508 861.2695,3944.8395 Q861.123,3943.7164 860.5371,3943.1305 Q859.5117,3941.9586 857.6074,3941.275 Q855.7031,3940.5914 853.75,3940.5914 Q851.3574,3940.5914 849.3555,3941.6168 Q847.4023,3942.6422 845.8398,3944.986 Q844.3262,3947.3297 844.3262,3950.5524 L844.3262,3953.9703 Q844.3262,3957.8278 847.1094,3960.4156 Q849.8926,3962.9547 854.873,3962.9547 Q857.8027,3962.9547 859.8535,3962.1735 Q861.0742,3961.6852 862.3926,3960.318 Q863.2227,3959.4879 863.6621,3959.2438 Q864.1504,3958.9996 864.7852,3958.9996 Q865.8105,3958.9996 866.5918,3959.8297 Q867.4219,3960.611 867.4219,3961.6852 Q867.4219,3962.7594 866.3477,3964.0289 Q864.7852,3965.8356 862.2949,3966.861 Q858.9258,3968.277 854.873,3968.277 Q850.1367,3968.277 846.377,3966.3239 Q843.3008,3964.7614 841.1523,3961.441 Q839.0039,3958.0719 839.0039,3954.068 L839.0039,3950.4547 Q839.0039,3946.3043 840.9082,3942.7399 Q842.8613,3939.1266 846.2793,3937.2223 Q849.6973,3935.2692 853.5547,3935.2692 Q855.8496,3935.2692 857.8516,3935.8063 Q859.9023,3936.2946 861.6113,3937.4176 Z " fill="#000000"/><text fill="#263238" font-family="Arial" font-size="43.75" lengthAdjust="spacing" textLength="412.5" x="897.0313" y="3966.1911">HistorialRecordatorio</text><line style="stroke:#2E8B57;stroke-width:1.5625;" x1="807.8125" x2="1317.1875" y1="4000.3082" y2="4000.3082"/><rect fill="none" height="18.75" style="stroke:#C82930;stroke-width:3.125;" width="18.75" x="829.6875" y="4033.2748"/><text fill="#000000" font-family="Arial" font-size="43.75" lengthAdjust="spacing" textLength="187.5" x="867.1875" y="4053.8452">id : String</text><rect fill="none" height="18.75" style="stroke:#C82930;stroke-width:3.125;" width="18.75" x="829.6875" y="4083.5831"/><text fill="#000000" font-family="Arial" font-size="43.75" lengthAdjust="spacing" textLength="434.375" x="867.1875" y="4104.1534">fechaProceso : Fecha</text><rect fill="none" height="18.75" style="stroke:#C82930;stroke-width:3.125;" width="18.75" x="829.6875" y="4133.8913"/><text fill="#000000" font-family="Arial" font-size="43.75" lengthAdjust="spacing" textLength="337.5" x="867.1875" y="4154.4617">resultado : String</text><line style="stroke:#2E8B57;stroke-width:1.5625;" x1="807.8125" x2="1317.1875" y1="4176.2329" y2="4176.2329"/></g><!--class Publicacion--><g id="elem_Publicacion"><rect codeLine="73" fill="#F7F9F6" height="451.8494" id="Publicacion" rx="7.8125" ry="7.8125" style="stroke:#2E8B57;stroke-width:1.5625;" width="584.375" x="1660.9375" y="2019.0582"/><ellipse cx="1827.3438" cy="2069.0582" fill="#ADD1B2" rx="34.375" ry="34.375" style="stroke:#181818;stroke-width:3.125;"/><path d="M1835.9863,2056.1676 Q1836.4746,2055.484 1837.0605,2055.1422 Q1837.6465,2054.8004 1838.3301,2054.8004 Q1839.502,2054.8004 1840.2344,2055.6305 Q1840.9668,2056.4117 1840.9668,2058.316 L1840.9668,2062.8571 Q1840.9668,2064.7614 1840.2344,2065.5914 Q1839.502,2066.4215 1838.3301,2066.4215 Q1837.2559,2066.4215 1836.6211,2065.7867 Q1835.9863,2065.2008 1835.6445,2063.5895 Q1835.498,2062.4664 1834.9121,2061.8805 Q1833.8867,2060.7086 1831.9824,2060.025 Q1830.0781,2059.3414 1828.125,2059.3414 Q1825.7324,2059.3414 1823.7305,2060.3668 Q1821.7773,2061.3922 1820.2148,2063.736 Q1818.7012,2066.0797 1818.7012,2069.3024 L1818.7012,2072.7203 Q1818.7012,2076.5778 1821.4844,2079.1656 Q1824.2676,2081.7047 1829.248,2081.7047 Q1832.1777,2081.7047 1834.2285,2080.9235 Q1835.4492,2080.4352 1836.7676,2079.068 Q1837.5977,2078.2379 1838.0371,2077.9938 Q1838.5254,2077.7496 1839.1602,2077.7496 Q1840.1855,2077.7496 1840.9668,2078.5797 Q1841.7969,2079.361 1841.7969,2080.4352 Q1841.7969,2081.5094 1840.7227,2082.7789 Q1839.1602,2084.5856 1836.6699,2085.611 Q1833.3008,2087.027 1829.248,2087.027 Q1824.5117,2087.027 1820.752,2085.0739 Q1817.6758,2083.5114 1815.5273,2080.191 Q1813.3789,2076.8219 1813.3789,2072.818 L1813.3789,2069.2047 Q1813.3789,2065.0543 1815.2832,2061.4899 Q1817.2363,2057.8766 1820.6543,2055.9723 Q1824.0723,2054.0192 1827.9297,2054.0192 Q1830.2246,2054.0192 1832.2266,2054.5563 Q1834.2773,2055.0446 1835.9863,2056.1676 Z " fill="#000000"/><text fill="#263238" font-family="Arial" font-size="43.75" lengthAdjust="spacing" textLength="225" x="1891.4063" y="2084.9411">Publicacion</text><line style="stroke:#2E8B57;stroke-width:1.5625;" x1="1664.0625" x2="2242.1875" y1="2119.0582" y2="2119.0582"/><rect fill="none" height="18.75" style="stroke:#C82930;stroke-width:3.125;" width="18.75" x="1685.9375" y="2152.0248"/><text fill="#000000" font-family="Arial" font-size="43.75" lengthAdjust="spacing" textLength="187.5" x="1723.4375" y="2172.5952">id : String</text><rect fill="none" height="18.75" style="stroke:#C82930;stroke-width:3.125;" width="18.75" x="1685.9375" y="2202.3331"/><text fill="#000000" font-family="Arial" font-size="43.75" lengthAdjust="spacing" textLength="346.875" x="1723.4375" y="2222.9034">contenido : String</text><rect fill="none" height="18.75" style="stroke:#C82930;stroke-width:3.125;" width="18.75" x="1685.9375" y="2252.6413"/><text fill="#000000" font-family="Arial" font-size="43.75" lengthAdjust="spacing" textLength="296.875" x="1723.4375" y="2273.2117">imagen : String</text><rect fill="none" height="18.75" style="stroke:#C82930;stroke-width:3.125;" width="18.75" x="1685.9375" y="2302.9495"/><text fill="#000000" font-family="Arial" font-size="43.75" lengthAdjust="spacing" textLength="356.25" x="1723.4375" y="2323.5199">numLikes : Entero</text><rect fill="none" height="18.75" style="stroke:#C82930;stroke-width:3.125;" width="18.75" x="1685.9375" y="2353.2578"/><text fill="#000000" font-family="Arial" font-size="43.75" lengthAdjust="spacing" textLength="503.125" x="1723.4375" y="2373.8281">numComentarios : Entero</text><rect fill="none" height="18.75" style="stroke:#C82930;stroke-width:3.125;" width="18.75" x="1685.9375" y="2403.566"/><text fill="#000000" font-family="Arial" font-size="43.75" lengthAdjust="spacing" textLength="450" x="1723.4375" y="2424.1364">fechaCreacion : Fecha</text><line style="stroke:#2E8B57;stroke-width:1.5625;" x1="1664.0625" x2="2242.1875" y1="2445.9076" y2="2445.9076"/></g><!--class LikePublicacion--><g id="elem_LikePublicacion"><rect codeLine="82" fill="#F7F9F6" height="250.6165" id="LikePublicacion" rx="7.8125" ry="7.8125" style="stroke:#2E8B57;stroke-width:1.5625;" width="531.25" x="1493.75" y="3111.2457"/><ellipse cx="1596.875" cy="3161.2457" fill="#ADD1B2" rx="34.375" ry="34.375" style="stroke:#181818;stroke-width:3.125;"/><path d="M1605.5176,3148.3551 Q1606.0059,3147.6715 1606.5918,3147.3297 Q1607.1777,3146.9879 1607.8613,3146.9879 Q1609.0332,3146.9879 1609.7656,3147.818 Q1610.498,3148.5992 1610.498,3150.5035 L1610.498,3155.0446 Q1610.498,3156.9489 1609.7656,3157.7789 Q1609.0332,3158.609 1607.8613,3158.609 Q1606.7871,3158.609 1606.1523,3157.9742 Q1605.5176,3157.3883 1605.1758,3155.777 Q1605.0293,3154.6539 1604.4434,3154.068 Q1603.418,3152.8961 1601.5137,3152.2125 Q1599.6094,3151.5289 1597.6563,3151.5289 Q1595.2637,3151.5289 1593.2617,3152.5543 Q1591.3086,3153.5797 1589.7461,3155.9235 Q1588.2324,3158.2672 1588.2324,3161.4899 L1588.2324,3164.9078 Q1588.2324,3168.7653 1591.0156,3171.3531 Q1593.7988,3173.8922 1598.7793,3173.8922 Q1601.709,3173.8922 1603.7598,3173.111 Q1604.9805,3172.6227 1606.2988,3171.2555 Q1607.1289,3170.4254 1607.5684,3170.1813 Q1608.0566,3169.9371 1608.6914,3169.9371 Q1609.7168,3169.9371 1610.498,3170.7672 Q1611.3281,3171.5485 1611.3281,3172.6227 Q1611.3281,3173.6969 1610.2539,3174.9664 Q1608.6914,3176.7731 1606.2012,3177.7985 Q1602.832,3179.2145 1598.7793,3179.2145 Q1594.043,3179.2145 1590.2832,3177.2614 Q1587.207,3175.6989 1585.0586,3172.3785 Q1582.9102,3169.0094 1582.9102,3165.0055 L1582.9102,3161.3922 Q1582.9102,3157.2418 1584.8145,3153.6774 Q1586.7676,3150.0641 1590.1855,3148.1598 Q1593.6035,3146.2067 1597.4609,3146.2067 Q1599.7559,3146.2067 1601.7578,3146.7438 Q1603.8086,3147.2321 1605.5176,3148.3551 Z " fill="#000000"/><text fill="#263238" font-family="Arial" font-size="43.75" lengthAdjust="spacing" textLength="306.25" x="1653.125" y="3177.1286">LikePublicacion</text><line style="stroke:#2E8B57;stroke-width:1.5625;" x1="1496.875" x2="2021.875" y1="3211.2457" y2="3211.2457"/><rect fill="none" height="18.75" style="stroke:#C82930;stroke-width:3.125;" width="18.75" x="1518.75" y="3244.2123"/><text fill="#000000" font-family="Arial" font-size="43.75" lengthAdjust="spacing" textLength="187.5" x="1556.25" y="3264.7827">id : String</text><rect fill="none" height="18.75" style="stroke:#C82930;stroke-width:3.125;" width="18.75" x="1518.75" y="3294.5206"/><text fill="#000000" font-family="Arial" font-size="43.75" lengthAdjust="spacing" textLength="450" x="1556.25" y="3315.0909">fechaCreacion : Fecha</text><line style="stroke:#2E8B57;stroke-width:1.5625;" x1="1496.875" x2="2021.875" y1="3336.8622" y2="3336.8622"/></g><!--class Comentario--><g id="elem_Comentario"><rect codeLine="87" fill="#F7F9F6" height="300.9247" id="Comentario" rx="7.8125" ry="7.8125" style="stroke:#2E8B57;stroke-width:1.5625;" width="531.25" x="2200" y="3086.2457"/><ellipse cx="2338.2813" cy="3136.2457" fill="#ADD1B2" rx="34.375" ry="34.375" style="stroke:#181818;stroke-width:3.125;"/><path d="M2346.9238,3123.3551 Q2347.4121,3122.6715 2347.998,3122.3297 Q2348.584,3121.9879 2349.2676,3121.9879 Q2350.4395,3121.9879 2351.1719,3122.818 Q2351.9043,3123.5992 2351.9043,3125.5035 L2351.9043,3130.0446 Q2351.9043,3131.9489 2351.1719,3132.7789 Q2350.4395,3133.609 2349.2676,3133.609 Q2348.1934,3133.609 2347.5586,3132.9742 Q2346.9238,3132.3883 2346.582,3130.777 Q2346.4355,3129.6539 2345.8496,3129.068 Q2344.8242,3127.8961 2342.9199,3127.2125 Q2341.0156,3126.5289 2339.0625,3126.5289 Q2336.6699,3126.5289 2334.668,3127.5543 Q2332.7148,3128.5797 2331.1523,3130.9235 Q2329.6387,3133.2672 2329.6387,3136.4899 L2329.6387,3139.9078 Q2329.6387,3143.7653 2332.4219,3146.3531 Q2335.2051,3148.8922 2340.1855,3148.8922 Q2343.1152,3148.8922 2345.166,3148.111 Q2346.3867,3147.6227 2347.7051,3146.2555 Q2348.5352,3145.4254 2348.9746,3145.1813 Q2349.4629,3144.9371 2350.0977,3144.9371 Q2351.123,3144.9371 2351.9043,3145.7672 Q2352.7344,3146.5485 2352.7344,3147.6227 Q2352.7344,3148.6969 2351.6602,3149.9664 Q2350.0977,3151.7731 2347.6074,3152.7985 Q2344.2383,3154.2145 2340.1855,3154.2145 Q2335.4492,3154.2145 2331.6895,3152.2614 Q2328.6133,3150.6989 2326.4648,3147.3785 Q2324.3164,3144.0094 2324.3164,3140.0055 L2324.3164,3136.3922 Q2324.3164,3132.2418 2326.2207,3128.6774 Q2328.1738,3125.0641 2331.5918,3123.1598 Q2335.0098,3121.2067 2338.8672,3121.2067 Q2341.1621,3121.2067 2343.1641,3121.7438 Q2345.2148,3122.2321 2346.9238,3123.3551 Z " fill="#000000"/><text fill="#263238" font-family="Arial" font-size="43.75" lengthAdjust="spacing" textLength="228.125" x="2402.3438" y="3152.1286">Comentario</text><line style="stroke:#2E8B57;stroke-width:1.5625;" x1="2203.125" x2="2728.125" y1="3186.2457" y2="3186.2457"/><rect fill="none" height="18.75" style="stroke:#C82930;stroke-width:3.125;" width="18.75" x="2225" y="3219.2123"/><text fill="#000000" font-family="Arial" font-size="43.75" lengthAdjust="spacing" textLength="187.5" x="2262.5" y="3239.7827">id : String</text><rect fill="none" height="18.75" style="stroke:#C82930;stroke-width:3.125;" width="18.75" x="2225" y="3269.5206"/><text fill="#000000" font-family="Arial" font-size="43.75" lengthAdjust="spacing" textLength="346.875" x="2262.5" y="3290.0909">contenido : String</text><rect fill="none" height="18.75" style="stroke:#C82930;stroke-width:3.125;" width="18.75" x="2225" y="3319.8288"/><text fill="#000000" font-family="Arial" font-size="43.75" lengthAdjust="spacing" textLength="450" x="2262.5" y="3340.3992">fechaCreacion : Fecha</text><line style="stroke:#2E8B57;stroke-width:1.5625;" x1="2203.125" x2="2728.125" y1="3362.1704" y2="3362.1704"/></g><!--class Conversacion--><g id="elem_Conversacion"><rect codeLine="93" fill="#F7F9F6" height="300.9247" id="Conversacion" rx="7.8125" ry="7.8125" style="stroke:#2E8B57;stroke-width:1.5625;" width="637.5" x="3271.875" y="1304.9957"/><ellipse cx="3441.4063" cy="1354.9957" fill="#ADD1B2" rx="34.375" ry="34.375" style="stroke:#181818;stroke-width:3.125;"/><path d="M3450.0488,1342.1051 Q3450.5371,1341.4215 3451.123,1341.0797 Q3451.709,1340.7379 3452.3926,1340.7379 Q3453.5645,1340.7379 3454.2969,1341.568 Q3455.0293,1342.3492 3455.0293,1344.2535 L3455.0293,1348.7946 Q3455.0293,1350.6989 3454.2969,1351.5289 Q3453.5645,1352.359 3452.3926,1352.359 Q3451.3184,1352.359 3450.6836,1351.7242 Q3450.0488,1351.1383 3449.707,1349.527 Q3449.5605,1348.4039 3448.9746,1347.818 Q3447.9492,1346.6461 3446.0449,1345.9625 Q3444.1406,1345.2789 3442.1875,1345.2789 Q3439.7949,1345.2789 3437.793,1346.3043 Q3435.8398,1347.3297 3434.2773,1349.6735 Q3432.7637,1352.0172 3432.7637,1355.2399 L3432.7637,1358.6578 Q3432.7637,1362.5153 3435.5469,1365.1031 Q3438.3301,1367.6422 3443.3105,1367.6422 Q3446.2402,1367.6422 3448.291,1366.861 Q3449.5117,1366.3727 3450.8301,1365.0055 Q3451.6602,1364.1754 3452.0996,1363.9313 Q3452.5879,1363.6871 3453.2227,1363.6871 Q3454.248,1363.6871 3455.0293,1364.5172 Q3455.8594,1365.2985 3455.8594,1366.3727 Q3455.8594,1367.4469 3454.7852,1368.7164 Q3453.2227,1370.5231 3450.7324,1371.5485 Q3447.3633,1372.9645 3443.3105,1372.9645 Q3438.5742,1372.9645 3434.8145,1371.0114 Q3431.7383,1369.4489 3429.5898,1366.1285 Q3427.4414,1362.7594 3427.4414,1358.7555 L3427.4414,1355.1422 Q3427.4414,1350.9918 3429.3457,1347.4274 Q3431.2988,1343.8141 3434.7168,1341.9098 Q3438.1348,1339.9567 3441.9922,1339.9567 Q3444.2871,1339.9567 3446.2891,1340.4938 Q3448.3398,1340.9821 3450.0488,1342.1051 Z " fill="#000000"/><text fill="#263238" font-family="Arial" font-size="43.75" lengthAdjust="spacing" textLength="271.875" x="3505.4688" y="1370.8786">Conversacion</text><line style="stroke:#2E8B57;stroke-width:1.5625;" x1="3275" x2="3906.25" y1="1404.9957" y2="1404.9957"/><rect fill="none" height="18.75" style="stroke:#C82930;stroke-width:3.125;" width="18.75" x="3296.875" y="1437.9623"/><text fill="#000000" font-family="Arial" font-size="43.75" lengthAdjust="spacing" textLength="187.5" x="3334.375" y="1458.5327">id : String</text><rect fill="none" height="18.75" style="stroke:#C82930;stroke-width:3.125;" width="18.75" x="3296.875" y="1488.2706"/><text fill="#000000" font-family="Arial" font-size="43.75" lengthAdjust="spacing" textLength="556.25" x="3334.375" y="1508.8409">fechaUltimoMensaje : Fecha</text><rect fill="none" height="18.75" style="stroke:#C82930;stroke-width:3.125;" width="18.75" x="3296.875" y="1538.5788"/><text fill="#000000" font-family="Arial" font-size="43.75" lengthAdjust="spacing" textLength="450" x="3334.375" y="1559.1492">fechaCreacion : Fecha</text><line style="stroke:#2E8B57;stroke-width:1.5625;" x1="3275" x2="3906.25" y1="1580.9204" y2="1580.9204"/></g><!--class Mensaje--><g id="elem_Mensaje"><rect codeLine="99" fill="#F7F9F6" height="351.2329" id="Mensaje" rx="7.8125" ry="7.8125" style="stroke:#2E8B57;stroke-width:1.5625;" width="531.25" x="3025" y="2070.6207"/><ellipse cx="3194.5313" cy="2120.6207" fill="#ADD1B2" rx="34.375" ry="34.375" style="stroke:#181818;stroke-width:3.125;"/><path d="M3203.1738,2107.7301 Q3203.6621,2107.0465 3204.248,2106.7047 Q3204.834,2106.3629 3205.5176,2106.3629 Q3206.6895,2106.3629 3207.4219,2107.193 Q3208.1543,2107.9742 3208.1543,2109.8785 L3208.1543,2114.4196 Q3208.1543,2116.3239 3207.4219,2117.1539 Q3206.6895,2117.984 3205.5176,2117.984 Q3204.4434,2117.984 3203.8086,2117.3492 Q3203.1738,2116.7633 3202.832,2115.152 Q3202.6855,2114.0289 3202.0996,2113.443 Q3201.0742,2112.2711 3199.1699,2111.5875 Q3197.2656,2110.9039 3195.3125,2110.9039 Q3192.9199,2110.9039 3190.918,2111.9293 Q3188.9648,2112.9547 3187.4023,2115.2985 Q3185.8887,2117.6422 3185.8887,2120.8649 L3185.8887,2124.2828 Q3185.8887,2128.1403 3188.6719,2130.7281 Q3191.4551,2133.2672 3196.4355,2133.2672 Q3199.3652,2133.2672 3201.416,2132.486 Q3202.6367,2131.9977 3203.9551,2130.6305 Q3204.7852,2129.8004 3205.2246,2129.5563 Q3205.7129,2129.3121 3206.3477,2129.3121 Q3207.373,2129.3121 3208.1543,2130.1422 Q3208.9844,2130.9235 3208.9844,2131.9977 Q3208.9844,2133.0719 3207.9102,2134.3414 Q3206.3477,2136.1481 3203.8574,2137.1735 Q3200.4883,2138.5895 3196.4355,2138.5895 Q3191.6992,2138.5895 3187.9395,2136.6364 Q3184.8633,2135.0739 3182.7148,2131.7535 Q3180.5664,2128.3844 3180.5664,2124.3805 L3180.5664,2120.7672 Q3180.5664,2116.6168 3182.4707,2113.0524 Q3184.4238,2109.4391 3187.8418,2107.5348 Q3191.2598,2105.5817 3195.1172,2105.5817 Q3197.4121,2105.5817 3199.4141,2106.1188 Q3201.4648,2106.6071 3203.1738,2107.7301 Z " fill="#000000"/><text fill="#263238" font-family="Arial" font-size="43.75" lengthAdjust="spacing" textLength="165.625" x="3258.5938" y="2136.5036">Mensaje</text><line style="stroke:#2E8B57;stroke-width:1.5625;" x1="3028.125" x2="3553.125" y1="2170.6207" y2="2170.6207"/><rect fill="none" height="18.75" style="stroke:#C82930;stroke-width:3.125;" width="18.75" x="3050" y="2203.5873"/><text fill="#000000" font-family="Arial" font-size="43.75" lengthAdjust="spacing" textLength="187.5" x="3087.5" y="2224.1577">id : String</text><rect fill="none" height="18.75" style="stroke:#C82930;stroke-width:3.125;" width="18.75" x="3050" y="2253.8956"/><text fill="#000000" font-family="Arial" font-size="43.75" lengthAdjust="spacing" textLength="246.875" x="3087.5" y="2274.4659">texto : String</text><rect fill="none" height="18.75" style="stroke:#C82930;stroke-width:3.125;" width="18.75" x="3050" y="2304.2038"/><text fill="#000000" font-family="Arial" font-size="43.75" lengthAdjust="spacing" textLength="287.5" x="3087.5" y="2324.7742">estado : String</text><rect fill="none" height="18.75" style="stroke:#C82930;stroke-width:3.125;" width="18.75" x="3050" y="2354.512"/><text fill="#000000" font-family="Arial" font-size="43.75" lengthAdjust="spacing" textLength="450" x="3087.5" y="2375.0824">fechaCreacion : Fecha</text><line style="stroke:#2E8B57;stroke-width:1.5625;" x1="3028.125" x2="3553.125" y1="2396.8536" y2="2396.8536"/></g><!--class Notificacion--><g id="elem_Notificacion"><rect codeLine="106" fill="#F7F9F6" height="401.5411" id="Notificacion" rx="7.8125" ry="7.8125" style="stroke:#2E8B57;stroke-width:1.5625;" width="531.25" x="796.875" y="1254.9957"/><ellipse cx="936.7188" cy="1304.9957" fill="#ADD1B2" rx="34.375" ry="34.375" style="stroke:#181818;stroke-width:3.125;"/><path d="M945.3613,1292.1051 Q945.8496,1291.4215 946.4355,1291.0797 Q947.0215,1290.7379 947.7051,1290.7379 Q948.877,1290.7379 949.6094,1291.568 Q950.3418,1292.3492 950.3418,1294.2535 L950.3418,1298.7946 Q950.3418,1300.6989 949.6094,1301.5289 Q948.877,1302.359 947.7051,1302.359 Q946.6309,1302.359 945.9961,1301.7242 Q945.3613,1301.1383 945.0195,1299.527 Q944.873,1298.4039 944.2871,1297.818 Q943.2617,1296.6461 941.3574,1295.9625 Q939.4531,1295.2789 937.5,1295.2789 Q935.1074,1295.2789 933.1055,1296.3043 Q931.1523,1297.3297 929.5898,1299.6735 Q928.0762,1302.0172 928.0762,1305.2399 L928.0762,1308.6578 Q928.0762,1312.5153 930.8594,1315.1031 Q933.6426,1317.6422 938.623,1317.6422 Q941.5527,1317.6422 943.6035,1316.861 Q944.8242,1316.3727 946.1426,1315.0055 Q946.9727,1314.1754 947.4121,1313.9313 Q947.9004,1313.6871 948.5352,1313.6871 Q949.5605,1313.6871 950.3418,1314.5172 Q951.1719,1315.2985 951.1719,1316.3727 Q951.1719,1317.4469 950.0977,1318.7164 Q948.5352,1320.5231 946.0449,1321.5485 Q942.6758,1322.9645 938.623,1322.9645 Q933.8867,1322.9645 930.127,1321.0114 Q927.0508,1319.4489 924.9023,1316.1285 Q922.7539,1312.7594 922.7539,1308.7555 L922.7539,1305.1422 Q922.7539,1300.9918 924.6582,1297.4274 Q926.6113,1293.8141 930.0293,1291.9098 Q933.4473,1289.9567 937.3047,1289.9567 Q939.5996,1289.9567 941.6016,1290.4938 Q943.6523,1290.9821 945.3613,1292.1051 Z " fill="#000000"/><text fill="#263238" font-family="Arial" font-size="43.75" lengthAdjust="spacing" textLength="225" x="1000.7813" y="1320.8786">Notificacion</text><line style="stroke:#2E8B57;stroke-width:1.5625;" x1="800" x2="1325" y1="1354.9957" y2="1354.9957"/><rect fill="none" height="18.75" style="stroke:#C82930;stroke-width:3.125;" width="18.75" x="821.875" y="1387.9623"/><text fill="#000000" font-family="Arial" font-size="43.75" lengthAdjust="spacing" textLength="187.5" x="859.375" y="1408.5327">id : String</text><rect fill="none" height="18.75" style="stroke:#C82930;stroke-width:3.125;" width="18.75" x="821.875" y="1438.2706"/><text fill="#000000" font-family="Arial" font-size="43.75" lengthAdjust="spacing" textLength="225" x="859.375" y="1458.8409">tipo : String</text><rect fill="none" height="18.75" style="stroke:#C82930;stroke-width:3.125;" width="18.75" x="821.875" y="1488.5788"/><text fill="#000000" font-family="Arial" font-size="43.75" lengthAdjust="spacing" textLength="318.75" x="859.375" y="1509.1492">mensaje : String</text><rect fill="none" height="18.75" style="stroke:#C82930;stroke-width:3.125;" width="18.75" x="821.875" y="1538.887"/><text fill="#000000" font-family="Arial" font-size="43.75" lengthAdjust="spacing" textLength="293.75" x="859.375" y="1559.4574">leida : Boolean</text><rect fill="none" height="18.75" style="stroke:#C82930;stroke-width:3.125;" width="18.75" x="821.875" y="1589.1953"/><text fill="#000000" font-family="Arial" font-size="43.75" lengthAdjust="spacing" textLength="450" x="859.375" y="1609.7656">fechaCreacion : Fecha</text><line style="stroke:#2E8B57;stroke-width:1.5625;" x1="800" x2="1325" y1="1631.5369" y2="1631.5369"/></g><!--class Reporte--><g id="elem_Reporte"><rect codeLine="114" fill="#F7F9F6" height="451.8494" id="Reporte" rx="7.8125" ry="7.8125" style="stroke:#2E8B57;stroke-width:1.5625;" width="531.25" x="2053.125" y="1228.4332"/><ellipse cx="2225.7813" cy="1278.4332" fill="#ADD1B2" rx="34.375" ry="34.375" style="stroke:#181818;stroke-width:3.125;"/><path d="M2234.4238,1265.5426 Q2234.9121,1264.859 2235.498,1264.5172 Q2236.084,1264.1754 2236.7676,1264.1754 Q2237.9395,1264.1754 2238.6719,1265.0055 Q2239.4043,1265.7867 2239.4043,1267.691 L2239.4043,1272.2321 Q2239.4043,1274.1364 2238.6719,1274.9664 Q2237.9395,1275.7965 2236.7676,1275.7965 Q2235.6934,1275.7965 2235.0586,1275.1617 Q2234.4238,1274.5758 2234.082,1272.9645 Q2233.9355,1271.8414 2233.3496,1271.2555 Q2232.3242,1270.0836 2230.4199,1269.4 Q2228.5156,1268.7164 2226.5625,1268.7164 Q2224.1699,1268.7164 2222.168,1269.7418 Q2220.2148,1270.7672 2218.6523,1273.111 Q2217.1387,1275.4547 2217.1387,1278.6774 L2217.1387,1282.0953 Q2217.1387,1285.9528 2219.9219,1288.5406 Q2222.7051,1291.0797 2227.6855,1291.0797 Q2230.6152,1291.0797 2232.666,1290.2985 Q2233.8867,1289.8102 2235.2051,1288.443 Q2236.0352,1287.6129 2236.4746,1287.3688 Q2236.9629,1287.1246 2237.5977,1287.1246 Q2238.623,1287.1246 2239.4043,1287.9547 Q2240.2344,1288.736 2240.2344,1289.8102 Q2240.2344,1290.8844 2239.1602,1292.1539 Q2237.5977,1293.9606 2235.1074,1294.986 Q2231.7383,1296.402 2227.6855,1296.402 Q2222.9492,1296.402 2219.1895,1294.4489 Q2216.1133,1292.8864 2213.9648,1289.566 Q2211.8164,1286.1969 2211.8164,1282.193 L2211.8164,1278.5797 Q2211.8164,1274.4293 2213.7207,1270.8649 Q2215.6738,1267.2516 2219.0918,1265.3473 Q2222.5098,1263.3942 2226.3672,1263.3942 Q2228.6621,1263.3942 2230.6641,1263.9313 Q2232.7148,1264.4196 2234.4238,1265.5426 Z " fill="#000000"/><text fill="#263238" font-family="Arial" font-size="43.75" lengthAdjust="spacing" textLength="159.375" x="2289.8438" y="1294.3161">Reporte</text><line style="stroke:#2E8B57;stroke-width:1.5625;" x1="2056.25" x2="2581.25" y1="1328.4332" y2="1328.4332"/><rect fill="none" height="18.75" style="stroke:#C82930;stroke-width:3.125;" width="18.75" x="2078.125" y="1361.3998"/><text fill="#000000" font-family="Arial" font-size="43.75" lengthAdjust="spacing" textLength="187.5" x="2115.625" y="1381.9702">id : String</text><rect fill="none" height="18.75" style="stroke:#C82930;stroke-width:3.125;" width="18.75" x="2078.125" y="1411.7081"/><text fill="#000000" font-family="Arial" font-size="43.75" lengthAdjust="spacing" textLength="437.5" x="2115.625" y="1432.2784">numeroTicket : Entero</text><rect fill="none" height="18.75" style="stroke:#C82930;stroke-width:3.125;" width="18.75" x="2078.125" y="1462.0163"/><text fill="#000000" font-family="Arial" font-size="43.75" lengthAdjust="spacing" textLength="225" x="2115.625" y="1482.5867">tipo : String</text><rect fill="none" height="18.75" style="stroke:#C82930;stroke-width:3.125;" width="18.75" x="2078.125" y="1512.3245"/><text fill="#000000" font-family="Arial" font-size="43.75" lengthAdjust="spacing" textLength="246.875" x="2115.625" y="1532.8949">texto : String</text><rect fill="none" height="18.75" style="stroke:#C82930;stroke-width:3.125;" width="18.75" x="2078.125" y="1562.6328"/><text fill="#000000" font-family="Arial" font-size="43.75" lengthAdjust="spacing" textLength="287.5" x="2115.625" y="1583.2031">estado : String</text><rect fill="none" height="18.75" style="stroke:#C82930;stroke-width:3.125;" width="18.75" x="2078.125" y="1612.941"/><text fill="#000000" font-family="Arial" font-size="43.75" lengthAdjust="spacing" textLength="450" x="2115.625" y="1633.5114">fechaCreacion : Fecha</text><line style="stroke:#2E8B57;stroke-width:1.5625;" x1="2056.25" x2="2581.25" y1="1655.2826" y2="1655.2826"/></g><!--class CacheTiempo--><g id="elem_CacheTiempo"><rect codeLine="123" fill="#F7F9F6" height="401.5411" id="CacheTiempo" rx="7.8125" ry="7.8125" style="stroke:#2E8B57;stroke-width:1.5625;" width="556.25" x="2478.125" y="364.3707"/><ellipse cx="2606.5625" cy="414.3707" fill="#ADD1B2" rx="34.375" ry="34.375" style="stroke:#181818;stroke-width:3.125;"/><path d="M2615.2051,401.4801 Q2615.6934,400.7965 2616.2793,400.4547 Q2616.8652,400.1129 2617.5488,400.1129 Q2618.7207,400.1129 2619.4531,400.943 Q2620.1855,401.7242 2620.1855,403.6285 L2620.1855,408.1696 Q2620.1855,410.0739 2619.4531,410.9039 Q2618.7207,411.734 2617.5488,411.734 Q2616.4746,411.734 2615.8398,411.0992 Q2615.2051,410.5133 2614.8633,408.902 Q2614.7168,407.7789 2614.1309,407.193 Q2613.1055,406.0211 2611.2012,405.3375 Q2609.2969,404.6539 2607.3438,404.6539 Q2604.9512,404.6539 2602.9492,405.6793 Q2600.9961,406.7047 2599.4336,409.0485 Q2597.9199,411.3922 2597.9199,414.6149 L2597.9199,418.0328 Q2597.9199,421.8903 2600.7031,424.4781 Q2603.4863,427.0172 2608.4668,427.0172 Q2611.3965,427.0172 2613.4473,426.236 Q2614.668,425.7477 2615.9863,424.3805 Q2616.8164,423.5504 2617.2559,423.3063 Q2617.7441,423.0621 2618.3789,423.0621 Q2619.4043,423.0621 2620.1855,423.8922 Q2621.0156,424.6735 2621.0156,425.7477 Q2621.0156,426.8219 2619.9414,428.0914 Q2618.3789,429.8981 2615.8887,430.9235 Q2612.5195,432.3395 2608.4668,432.3395 Q2603.7305,432.3395 2599.9707,430.3864 Q2596.8945,428.8239 2594.7461,425.5035 Q2592.5977,422.1344 2592.5977,418.1305 L2592.5977,414.5172 Q2592.5977,410.3668 2594.502,406.8024 Q2596.4551,403.1891 2599.873,401.2848 Q2603.291,399.3317 2607.1484,399.3317 Q2609.4434,399.3317 2611.4453,399.8688 Q2613.4961,400.3571 2615.2051,401.4801 Z " fill="#000000"/><text fill="#263238" font-family="Arial" font-size="43.75" lengthAdjust="spacing" textLength="275" x="2668.4375" y="430.2536">CacheTiempo</text><line style="stroke:#2E8B57;stroke-width:1.5625;" x1="2481.25" x2="3031.25" y1="464.3707" y2="464.3707"/><rect fill="none" height="18.75" style="stroke:#C82930;stroke-width:3.125;" width="18.75" x="2503.125" y="497.3373"/><text fill="#000000" font-family="Arial" font-size="43.75" lengthAdjust="spacing" textLength="187.5" x="2540.625" y="517.9077">id : String</text><rect fill="none" height="18.75" style="stroke:#C82930;stroke-width:3.125;" width="18.75" x="2503.125" y="547.6456"/><text fill="#000000" font-family="Arial" font-size="43.75" lengthAdjust="spacing" textLength="446.875" x="2540.625" y="568.2159">claveUbicacion : String</text><rect fill="none" height="18.75" style="stroke:#C82930;stroke-width:3.125;" width="18.75" x="2503.125" y="597.9538"/><text fill="#000000" font-family="Arial" font-size="43.75" lengthAdjust="spacing" textLength="262.5" x="2540.625" y="618.5242">datos : String</text><rect fill="none" height="18.75" style="stroke:#C82930;stroke-width:3.125;" width="18.75" x="2503.125" y="648.262"/><text fill="#000000" font-family="Arial" font-size="43.75" lengthAdjust="spacing" textLength="475" x="2540.625" y="668.8324">fechaObtencion : Fecha</text><rect fill="none" height="18.75" style="stroke:#C82930;stroke-width:3.125;" width="18.75" x="2503.125" y="698.5703"/><text fill="#000000" font-family="Arial" font-size="43.75" lengthAdjust="spacing" textLength="475" x="2540.625" y="719.1406">fechaExpiracion : Fecha</text><line style="stroke:#2E8B57;stroke-width:1.5625;" x1="2481.25" x2="3031.25" y1="740.9119" y2="740.9119"/></g><!--link Usuario to Planta--><g id="link_Usuario_Planta"><path codeLine="132" d="M1718.0313,614.527 C1372.0938,683.527 840.5625,848.0895 584.375,1228.4332 C449.5313,1428.6207 447.375,1704.9645 474.5,1918.6207 " fill="none" id="Usuario-Planta" style="stroke:#181818;stroke-width:3.125;"/><polygon fill="#000000" points="589.2172,1467.7861,615.3702,1453.6678,602.0768,1440.9918,589.2172,1467.7861" style="stroke:#000000;stroke-width:3.125;"/><text fill="#000000" font-family="Arial" font-size="40.625" lengthAdjust="spacing" textLength="109.375" x="628.125" y="1471.2265">posee</text><text fill="#000000" font-family="Arial" font-size="40.625" lengthAdjust="spacing" textLength="21.875" x="1671.4331" y="611.0248">1</text><text fill="#000000" font-family="Arial" font-size="40.625" lengthAdjust="spacing" textLength="62.5" x="403.9914" y="1885.2954">0..*</text></g><!--link Planta to EspeciePlanta--><g id="link_Planta_EspeciePlanta"><path codeLine="133" d="M431.7188,2572.5582 C423.2188,2603.8707 415.5625,2635.3707 409.375,2665.9332 C400.0625,2711.9645 392.4688,2760.4332 386.3125,2808.8395 " fill="none" id="Planta-EspeciePlanta" style="stroke:#181818;stroke-width:3.125;"/><polygon fill="#000000" points="422.0513,2707.7599,436.4047,2681.7351,418.3664,2678.2687,422.0513,2707.7599" style="stroke:#000000;stroke-width:3.125;"/><text fill="#000000" font-family="Arial" font-size="40.625" lengthAdjust="spacing" textLength="175" x="453.125" y="2707.164">referencia</text><text fill="#000000" font-family="Arial" font-size="40.625" lengthAdjust="spacing" textLength="62.5" x="359.1443" y="2635.2956">0..*</text><text fill="#000000" font-family="Arial" font-size="40.625" lengthAdjust="spacing" textLength="68.75" x="317.1093" y="2775.8712">0..1</text></g><!--link Planta to Recordatorio--><g id="link_Planta_Recordatorio"><path codeLine="134" d="M714.3125,2572.4332 C794.9375,2725.402 888.5938,2903.0895 958.4375,3035.6207 " fill="none" id="Planta-Recordatorio" style="stroke:#181818;stroke-width:3.125;"/><polygon fill="#000000" points="813.5353,2706.2383,808.4808,2676.9507,792.2313,2685.5151,813.5353,2706.2383" style="stroke:#000000;stroke-width:3.125;"/><text fill="#000000" font-family="Arial" font-size="40.625" lengthAdjust="spacing" textLength="121.875" x="834.375" y="2707.164">genera</text><text fill="#000000" font-family="Arial" font-size="40.625" lengthAdjust="spacing" textLength="21.875" x="703.6611" y="2635.1618">1</text><text fill="#000000" font-family="Arial" font-size="40.625" lengthAdjust="spacing" textLength="62.5" x="879.4463" y="3002.9461">0..*</text></g><!--link Recordatorio to HistorialRecordatorio--><g id="link_Recordatorio_HistorialRecordatorio"><path codeLine="135" d="M1062.5,3436.9957 C1062.5,3579.902 1062.5,3769.9645 1062.5,3899.7457 " fill="none" id="Recordatorio-HistorialRecordatorio" style="stroke:#181818;stroke-width:3.125;"/><polygon fill="#000000" points="1078.125,3798.6656,1087.3091,3770.3997,1068.9409,3770.3997,1078.125,3798.6656" style="stroke:#000000;stroke-width:3.125;"/><text fill="#000000" font-family="Arial" font-size="40.625" lengthAdjust="spacing" textLength="143.75" x="1106.25" y="3797.789">produce</text><text fill="#000000" font-family="Arial" font-size="40.625" lengthAdjust="spacing" textLength="21.875" x="1039.3604" y="3500.9248">1</text><text fill="#000000" font-family="Arial" font-size="40.625" lengthAdjust="spacing" textLength="62.5" x="995.0195" y="3866.7818">0..*</text></g><!--link Usuario to Publicacion--><g id="link_Usuario_Publicacion"><path codeLine="137" d="M1878.9688,991.6832 C1855.25,1069.3395 1834.5938,1150.4957 1821.875,1228.4332 C1789.4063,1427.1832 1798.7813,1481.4957 1821.875,1681.5582 C1834.8438,1793.8395 1861.9375,1916.277 1888.1563,2018.0582 " fill="none" id="Usuario-Publicacion" style="stroke:#181818;stroke-width:3.125;"/><polygon fill="#000000" points="1837.6399,1472.1025,1846.5706,1443.7555,1828.2031,1443.9199,1837.6399,1472.1025" style="stroke:#000000;stroke-width:3.125;"/><text fill="#000000" font-family="Arial" font-size="40.625" lengthAdjust="spacing" textLength="128.125" x="1865.625" y="1471.2265">publica</text><text fill="#000000" font-family="Arial" font-size="40.625" lengthAdjust="spacing" textLength="21.875" x="1846.935" y="1055.809">1</text><text fill="#000000" font-family="Arial" font-size="40.625" lengthAdjust="spacing" textLength="62.5" x="1815.1323" y="1985.3637">0..*</text></g><!--link Publicacion to LikePublicacion--><g id="link_Publicacion_LikePublicacion"><path codeLine="138" d="M1878.2188,2473.2145 C1859.6563,2535.1207 1841.3438,2602.652 1828.125,2665.9332 C1796.5,2817.402 1777.875,2994.902 1768.1562,3110.4332 " fill="none" id="Publicacion-LikePublicacion" style="stroke:#181818;stroke-width:3.125;"/><polygon fill="#000000" points="1841.0906,2707.8126,1854.9517,2681.5223,1836.8514,2678.396,1841.0906,2707.8126" style="stroke:#000000;stroke-width:3.125;"/><text fill="#000000" font-family="Arial" font-size="40.625" lengthAdjust="spacing" textLength="109.375" x="1871.875" y="2707.164">recibe</text><text fill="#000000" font-family="Arial" font-size="40.625" lengthAdjust="spacing" textLength="21.875" x="1848.6983" y="2533.7274">1</text><text fill="#000000" font-family="Arial" font-size="40.625" lengthAdjust="spacing" textLength="62.5" x="1775.537" y="3077.7756">0..*</text></g><!--link Publicacion to Comentario--><g id="link_Publicacion_Comentario"><path codeLine="139" d="M2061.9688,2472.9957 C2100.0313,2550.3082 2143.5,2637.2145 2184.375,2715.9332 C2249.5938,2841.5582 2326.5625,2982.652 2383.5,3085.6832 " fill="none" id="Publicacion-Comentario" style="stroke:#181818;stroke-width:3.125;"/><polygon fill="#000000" points="2207.2607,2706.2512,2202.2583,2676.9547,2185.9936,2685.4902,2207.2607,2706.2512" style="stroke:#000000;stroke-width:3.125;"/><text fill="#000000" font-family="Arial" font-size="40.625" lengthAdjust="spacing" textLength="153.125" x="2228.125" y="2707.164">contiene</text><text fill="#000000" font-family="Arial" font-size="40.625" lengthAdjust="spacing" textLength="21.875" x="2049.1195" y="2534.2747">1</text><text fill="#000000" font-family="Arial" font-size="40.625" lengthAdjust="spacing" textLength="62.5" x="2302.9309" y="3052.7193">0..*</text></g><!--link Usuario to LikePublicacion--><g id="link_Usuario_LikePublicacion"><path codeLine="140" d="M1853.7188,991.8395 C1841.4063,1023.0582 1829.625,1054.2457 1818.75,1084.6832 C1594.2188,1713.6207 1530.4063,1908.6832 1606.25,2572.1832 C1628.0625,2762.9332 1684.1875,2978.7145 1722.0625,3110.3395 " fill="none" id="Usuario-LikePublicacion" style="stroke:#181818;stroke-width:3.125;"/><polygon fill="#000000" points="1624.0308,1817.3855,1634.9505,1789.7437,1616.6176,1788.6044,1624.0308,1817.3855" style="stroke:#000000;stroke-width:3.125;"/><text fill="#000000" font-family="Arial" font-size="40.625" lengthAdjust="spacing" textLength="100" x="1653.125" y="1816.539">emite</text><text fill="#000000" font-family="Arial" font-size="40.625" lengthAdjust="spacing" textLength="21.875" x="1820.8533" y="1054.5673">1</text><text fill="#000000" font-family="Arial" font-size="40.625" lengthAdjust="spacing" textLength="62.5" x="1646.9213" y="3077.6646">0..*</text></g><!--link Usuario to Comentario--><g id="link_Usuario_Comentario"><path codeLine="141" d="M2369.4375,932.5895 C2387.1563,952.3395 2404.7188,971.902 2421.875,990.9332 C2517.2813,1096.8707 2586.125,1095.4332 2637.5,1228.4332 C2890.4688,1883.402 2640.25,2745.6832 2521.0313,3085.9645 " fill="none" id="Usuario-Comentario" style="stroke:#181818;stroke-width:3.125;"/><polygon fill="#000000" points="2763.5973,1817.377,2770.7738,1788.536,2752.4508,1789.8259,2763.5973,1817.377" style="stroke:#000000;stroke-width:3.125;"/><text fill="#000000" font-family="Arial" font-size="40.625" lengthAdjust="spacing" textLength="131.25" x="2790.625" y="1816.539">escribe</text><text fill="#000000" font-family="Arial" font-size="40.625" lengthAdjust="spacing" textLength="21.875" x="2394.1584" y="952.445">1</text><text fill="#000000" font-family="Arial" font-size="40.625" lengthAdjust="spacing" textLength="62.5" x="2462.3812" y="3053.0454">0..*</text></g><!--link Usuario to Conversacion--><g id="link_Usuario_Conversacion"><path codeLine="143" d="M2369.7188,959.1207 C2386.625,970.7457 2404.0313,981.4332 2421.875,990.9332 C2692.9063,1135.152 2822.5625,967.277 3106.25,1084.6832 C3229.5938,1135.7145 3349.3125,1225.9957 3438.875,1304.2457 " fill="none" id="Usuario-Conversacion" style="stroke:#181818;stroke-width:3.125;"/><polygon fill="#000000" points="3227.3695,1115.9655,3203.2916,1098.5424,3197.649,1116.0225,3227.3695,1115.9655" style="stroke:#000000;stroke-width:3.125;"/><text fill="#000000" font-family="Arial" font-size="40.625" lengthAdjust="spacing" textLength="209.375" x="3240.625" y="1125.914">participa en</text><text fill="#000000" font-family="Arial" font-size="40.625" lengthAdjust="spacing" textLength="21.875" x="2393.4075" y="1026.5828">2</text><text fill="#000000" font-family="Arial" font-size="40.625" lengthAdjust="spacing" textLength="62.5" x="3347.2094" y="1271.252">0..*</text></g><!--link Conversacion to Mensaje--><g id="link_Conversacion_Mensaje"><path codeLine="144" d="M3534.1875,1605.652 C3483.7813,1737.4645 3409.9063,1930.652 3356.75,2069.652 " fill="none" id="Conversacion-Mensaje" style="stroke:#181818;stroke-width:3.125;"/><polygon fill="#000000" points="3478.794,1816.3849,3497.4684,1793.264,3480.3118,1786.7032,3478.794,1816.3849" style="stroke:#000000;stroke-width:3.125;"/><text fill="#000000" font-family="Arial" font-size="40.625" lengthAdjust="spacing" textLength="153.125" x="3512.5" y="1816.539">contiene</text><text fill="#000000" font-family="Arial" font-size="40.625" lengthAdjust="spacing" textLength="21.875" x="3502.4168" y="1669.2481">1</text><text fill="#000000" font-family="Arial" font-size="40.625" lengthAdjust="spacing" textLength="62.5" x="3298.9363" y="2037.5389">0..*</text></g><!--link Usuario to Mensaje--><g id="link_Usuario_Mensaje"><path codeLine="145" d="M2369.5938,956.2457 C2386.625,968.7457 2404.0625,980.402 2421.875,990.9332 C2582.5938,1085.8707 2689.5938,963.152 2831.25,1084.6832 C2851.0625,1101.6832 3102.0938,1751.1207 3224.4375,2069.7457 " fill="none" id="Usuario-Mensaje" style="stroke:#181818;stroke-width:3.125;"/><polygon fill="#000000" points="3097.0149,1468.872,3087.0872,1440.8586,3072.5174,1452.044,3097.0149,1468.872" style="stroke:#000000;stroke-width:3.125;"/><text fill="#000000" font-family="Arial" font-size="40.625" lengthAdjust="spacing" textLength="90.625" x="3115.625" y="1471.2265">envia</text><text fill="#000000" font-family="Arial" font-size="40.625" lengthAdjust="spacing" textLength="21.875" x="2393.2737" y="976.6795">1</text><text fill="#000000" font-family="Arial" font-size="40.625" lengthAdjust="spacing" textLength="62.5" x="3148.2354" y="2036.4147">0..*</text></g><!--link Usuario to Notificacion--><g id="link_Usuario_Notificacion"><path codeLine="147" d="M1718.0938,731.2457 C1564.25,820.277 1386.3125,941.527 1256.25,1084.6832 C1211.4063,1134.027 1173.6875,1195.652 1143.7813,1254.2457 " fill="none" id="Usuario-Notificacion" style="stroke:#181818;stroke-width:3.125;"/><polygon fill="#000000" points="1260.3224,1121.686,1287.405,1109.4449,1275.0375,1095.864,1260.3224,1121.686" style="stroke:#000000;stroke-width:3.125;"/><text fill="#000000" font-family="Arial" font-size="40.625" lengthAdjust="spacing" textLength="109.375" x="1300" y="1125.914">recibe</text><text fill="#000000" font-family="Arial" font-size="40.625" lengthAdjust="spacing" textLength="21.875" x="1671.5001" y="736.3151">1</text><text fill="#000000" font-family="Arial" font-size="40.625" lengthAdjust="spacing" textLength="62.5" x="1087.3788" y="1221.5558">0..*</text></g><!--link Notificacion to Planta--><g id="link_Notificacion_Planta"><path codeLine="148" d="M871.25,1655.402 C838.3125,1693.7145 805.8125,1734.652 778.125,1775.3082 C747.7188,1819.9332 718.8125,1869.0582 692.3125,1918.152 " fill="none" id="Notificacion-Planta" style="stroke:#181818;stroke-width:3.125;"/><text fill="#000000" font-family="Arial" font-size="40.625" lengthAdjust="spacing" textLength="196.875" x="781.25" y="1816.539">asociada a</text><text fill="#000000" font-family="Arial" font-size="40.625" lengthAdjust="spacing" textLength="62.5" x="783.0234" y="1719.2913">0..*</text><text fill="#000000" font-family="Arial" font-size="40.625" lengthAdjust="spacing" textLength="68.75" x="632.305" y="1885.8763">0..1</text></g><!--link Notificacion to Recordatorio--><g id="link_Notificacion_Recordatorio"><path codeLine="149" d="M1062.5,1655.7145 C1062.5,1997.277 1062.5,2694.277 1062.5,3035.7145 " fill="none" id="Notificacion-Recordatorio" style="stroke:#181818;stroke-width:3.125;"/><text fill="#000000" font-family="Arial" font-size="40.625" lengthAdjust="spacing" textLength="196.875" x="1065.625" y="2261.8515">asociada a</text><text fill="#000000" font-family="Arial" font-size="40.625" lengthAdjust="spacing" textLength="62.5" x="996.3867" y="1719.64">0..*</text><text fill="#000000" font-family="Arial" font-size="40.625" lengthAdjust="spacing" textLength="68.75" x="989.5605" y="3003.0512">0..1</text></g><!--link Usuario to Reporte--><g id="link_Usuario_Reporte"><path codeLine="151" d="M2175.625,991.5582 C2200.9688,1073.1207 2226.5938,1155.4957 2249,1227.5895 " fill="none" id="Usuario-Reporte" style="stroke:#181818;stroke-width:3.125;"/><polygon fill="#000000" points="2235.8884,1126.0863,2236.2676,1096.3682,2218.7273,1101.8209,2235.8884,1126.0863" style="stroke:#000000;stroke-width:3.125;"/><text fill="#000000" font-family="Arial" font-size="40.625" lengthAdjust="spacing" textLength="100" x="2259.375" y="1125.914">emite</text><text fill="#000000" font-family="Arial" font-size="40.625" lengthAdjust="spacing" textLength="21.875" x="2160.7417" y="1055.6767">1</text><text fill="#000000" font-family="Arial" font-size="40.625" lengthAdjust="spacing" textLength="62.5" x="2175.4531" y="1194.912">0..*</text></g><!--link Reporte to Publicacion--><g id="link_Reporte_Publicacion"><path codeLine="152" d="M2214.4688,1681.8395 C2165.2813,1787.3395 2106.75,1912.9332 2057.5625,2018.4645 " fill="none" id="Reporte-Publicacion" style="stroke:#181818;stroke-width:3.125;"/><text fill="#000000" font-family="Arial" font-size="40.625" lengthAdjust="spacing" textLength="100" x="2171.875" y="1816.539">sobre</text><text fill="#000000" font-family="Arial" font-size="40.625" lengthAdjust="spacing" textLength="62.5" x="2139.4745" y="1743.0695">0..*</text><text fill="#000000" font-family="Arial" font-size="40.625" lengthAdjust="spacing" textLength="68.75" x="1996.4756" y="1985.8144">0..1</text></g><!--link Reporte to Comentario--><g id="link_Reporte_Comentario"><path codeLine="153" d="M2337.2813,1682.027 C2367.7813,2050.6207 2427.75,2775.3082 2453.4375,3085.9957 " fill="none" id="Reporte-Comentario" style="stroke:#181818;stroke-width:3.125;"/><text fill="#000000" font-family="Arial" font-size="40.625" lengthAdjust="spacing" textLength="100" x="2412.5" y="2261.8515">sobre</text><text fill="#000000" font-family="Arial" font-size="40.625" lengthAdjust="spacing" textLength="62.5" x="2273.6087" y="1743.2743">0..*</text><text fill="#000000" font-family="Arial" font-size="40.625" lengthAdjust="spacing" textLength="68.75" x="2377.2666" y="3053.0817">0..1</text></g><!--SRC=[hLPBRziu4BxhLn3PGu45KgG9jasDHO36jT53qXffSox6rDYPX0-LfDoWnVxt7UfXYxAqTe3roPxtuvkF3XGKYbkRex8YHo4LUFJn6nXGvCcBKx5GO8B_3aMHPVw9J04EjCWB4XTdPns9Vu3S_YIp5YjG7hksk89IXRaruJDe51ySWUheOrelVcU2FzSWdzREbYQVMcMT-6F-Rlv-_hRMMPUZQ-JdiylhlzvLyXYubRwzEB-upFx9iZhelI_1aQs2dmhAnKHy3OwBh7uRgvSEKnbg89MALZROLB84Oz3rP6JN3bO4gRXSaWH9rgHY1O526UlvY98qpwEIMhCU41VeLgGMZZOyOjPTMwiGJDD3e5MJ0lsYz0yz0sVLXroJ8HySkxkUcbj15dy27sBbSvGFK7STlqqTjiNNckraArZ02mQxFyMHqQmSoXAD9BWZN4UVcGdeR1qP9NhA8RyfV_Lp1l2fg73scRHjm-nwgnMmiFcBUfxvWhU2Bswzbaq9JRMhtXYua3NsPf0JUExQOLMxFtO6Kd6mgTK5eskfOXKtlFQ_QukhsiGQZuzLo3sTmnybeSDcBbsOQ6HcQEILNrtFLJlEl9HpLmOxv3QrFivno1CUInzmnjYB4mVLhkeMYleWLBaXk6NqQlYkTUSkjakvGycy0C6EttcWeZVpQj4BXnlgmrwZyV3OMw3aaIeCwVLjA_Z4GMpaj2DAQH9Rtc0AIOUUERBEqDZlRgrSglPKXiFoLWCQoe-0bYdr3JrX7rEbPjmmG2DTzdG7hY96ErpXWI2xv2_hy61Oiq7d3nPshm8JnUrszqTJGkio0ZnyxfCU-dJ9H-JutA7uen4-Y6E5j7VP1vBVOM5T66kGOSCe-KRo2KCAclsA_fzXJ44-u3T2NOmYHS46xuVVbdYSVY3VbsM8BquduLOrUox8xHNpYWUZcaStQ_zbdBmv4QUdukJizUi_JzeNSY8AvZyKLraZQDID8Rkapyg4gM3591mVm8vJ4ZeXcedW6qSNZHDvwZ9CKfE6ksDvOsrqJflDwr-ni8uyzUWJGkn8qXB_qwb309FgsFcrZ1x3HUsdG4rXt3w9ZbwwkfoTzNbgtM4DxXbS84a52ERIgopHfcbs17AmWvqfcasrwH73vFexeqpaUvZQWWcyPI3nrSC1ZnukEduZXRNCi9jzAzcl9bcLj_nlQDmusLLj-oy0]--></g></svg>