<?xml version="1.0" encoding="us-ascii" standalone="no"?><svg xmlns="http://www.w3.org/2000/svg" xmlns:xlink="http://www.w3.org/1999/xlink" contentStyleType="text/css" height="868.75px" preserveAspectRatio="none" style="width:2956px;height:868px;background:#FFFFFF;" version="1.1" viewBox="0 0 2956 868" width="2956.25px" zoomAndPan="magnify"><defs/><g><text fill="#000000" font-family="Arial" font-size="43.75" font-weight="bold" lengthAdjust="spacing" textLength="759.375" x="1076.9375" y="72.287">Diagrama de contexto - Plants_app</text><!--entity Usuario--><g id="elem_Usuario"><rect fill="#F7F9F6" height="141.5558" rx="7.8125" ry="7.8125" style="stroke:#2E8B57;stroke-width:1.5625;" width="215.625" x="1208.5625" y="137.8082"/><text fill="#263238" font-family="Arial" font-size="34.375" lengthAdjust="spacing" textLength="115.625" x="1239.8125" y="201.3016">Usuario</text><text fill="#263238" font-family="Arial" font-size="34.375" lengthAdjust="spacing" textLength="153.125" x="1239.8125" y="240.8295">registrado</text></g><!--entity Admin--><g id="elem_Admin"><rect fill="#F7F9F6" height="102.0279" rx="7.8125" ry="7.8125" style="stroke:#2E8B57;stroke-width:1.5625;" width="271.875" x="1614.8125" y="156.5582"/><text fill="#263238" font-family="Arial" font-size="34.375" lengthAdjust="spacing" textLength="209.375" x="1646.0625" y="220.0516">Administrador</text></g><!--entity Sistema--><g id="elem_Sistema"><ellipse cx="1532" cy="494.0582" fill="#2E8B57" rx="25" ry="25" style="stroke:#181818;stroke-width:1.5625;"/><text fill="#000000" font-family="Arial" font-size="34.375" lengthAdjust="spacing" textLength="165.625" x="1449.1875" y="579.4266">Plants_app</text></g><!--entity Weather--><g id="elem_Weather"><rect fill="#F7F9F6" height="102.0279" rx="7.8125" ry="7.8125" style="stroke:#2E8B57;stroke-width:1.5625;" width="312.5" x="460.125" y="728.4332"/><text fill="#263238" font-family="Arial" font-size="34.375" lengthAdjust="spacing" textLength="250" x="491.375" y="791.9266">WeatherAPI.com</text></g><!--entity Cloud--><g id="elem_Cloud"><rect fill="#F7F9F6" height="102.0279" rx="7.8125" ry="7.8125" style="stroke:#2E8B57;stroke-width:1.5625;" width="221.875" x="1086.6875" y="728.4332"/><text fill="#263238" font-family="Arial" font-size="34.375" lengthAdjust="spacing" textLength="159.375" x="1117.9375" y="791.9266">Cloudinary</text></g><!--entity FCM--><g id="elem_FCM"><rect fill="#F7F9F6" height="141.5558" rx="7.8125" ry="7.8125" style="stroke:#2E8B57;stroke-width:1.5625;" width="287.5" x="1769.5" y="709.6832"/><text fill="#263238" font-family="Arial" font-size="34.375" lengthAdjust="spacing" textLength="225" x="1800.75" y="773.1766">Firebase Cloud</text><text fill="#263238" font-family="Arial" font-size="34.375" lengthAdjust="spacing" textLength="162.5" x="1800.75" y="812.7045">Messaging</text></g><!--entity Cron--><g id="elem_Cron"><rect fill="#F7F9F6" height="102.0279" rx="7.8125" ry="7.8125" style="stroke:#2E8B57;stroke-width:1.5625;" width="246.875" x="2458.5625" y="728.4332"/><text fill="#263238" font-family="Arial" font-size="34.375" lengthAdjust="spacing" textLength="184.375" x="2489.8125" y="791.9266">cron-job.org</text></g><!--link Usuario to Admin--><!--link Weather to Cloud--><!--link Cloud to FCM--><!--link FCM to Cron--><!--link Usuario to Sistema--><g id="link_Usuario_Sistema"><path d="M1207.5313,214.3707 C1023.4688,223.3707 681.8438,258.3395 800.75,394.0582 C894.875,501.4645 1361.1633,495.7581 1484.632,492.3831 " fill="none" id="Usuario-to-Sistema" style="stroke:#181818;stroke-width:3.125;"/><polygon fill="#181818" points="1503.375,491.8707,1474.9189,480.1439,1487.7558,492.2977,1475.6021,505.1346,1503.375,491.8707" style="stroke:#181818;stroke-width:3.125;"/><text fill="#000000" font-family="Arial" font-size="34.375" lengthAdjust="spacing" textLength="412.5" x="803.875" y="385.6766">Sesion / inventario / publica</text></g><!--reverse link Usuario to Sistema--><g id="link_Usuario_Sistema"><path d="M1294.8619,297.3719 C1288.7994,334.2157 1291.4375,360.527 1313.25,394.0582 C1355.8438,459.4957 1453.875,481.0582 1502.9063,487.902 " fill="none" id="Usuario-backto-Sistema" style="stroke:#181818;stroke-width:3.125;"/><polygon fill="#181818" points="1297.9063,278.8707,1281.0057,304.593,1295.3693,294.2884,1305.6739,308.6521,1297.9063,278.8707" style="stroke:#181818;stroke-width:3.125;"/><text fill="#000000" font-family="Arial" font-size="34.375" lengthAdjust="spacing" textLength="334.375" x="1316.375" y="385.6766">Datos y notificaciones</text></g><!--link Admin to Sistema--><g id="link_Admin_Sistema"><path d="M1733.8438,259.8395 C1718.6563,298.902 1693.5937,353.6832 1660.125,394.0582 C1631.6563,428.4332 1604.7871,447.9686 1576.5684,465.0624 " fill="none" id="Admin-to-Sistema" style="stroke:#181818;stroke-width:3.125;"/><polygon fill="#181818" points="1560.5313,474.777,1591.0633,470.8965,1573.8955,466.6815,1578.1105,449.5137,1560.5313,474.777" style="stroke:#181818;stroke-width:3.125;"/><text fill="#000000" font-family="Arial" font-size="34.375" lengthAdjust="spacing" textLength="415.625" x="1691.375" y="385.6766">Moderacion / mantenimiento</text></g><!--reverse link Admin to Sistema--><g id="link_Admin_Sistema"><path d="M1905.6729,232.1033 C2043.5166,255.5096 2207.3125,301.8707 2128.875,394.0582 C2054.4063,481.6207 1670.5312,490.277 1561.1563,490.9332 " fill="none" id="Admin-backto-Sistema" style="stroke:#181818;stroke-width:3.125;"/><polygon fill="#181818" points="1887.1875,228.9645,1912.823,245.9964,1902.592,231.5802,1917.0082,221.3492,1887.1875,228.9645" style="stroke:#181818;stroke-width:3.125;"/><text fill="#000000" font-family="Arial" font-size="34.375" lengthAdjust="spacing" textLength="290.625" x="2150.75" y="385.6766">Panel y diagnostico</text></g><!--link Sistema to Weather--><g id="link_Sistema_Weather"><path d="M1503.5938,496.8707 C1312.8125,495.1207 223.25,489.6207 125.75,594.0582 C18.75,708.6832 260.0413,750.1914 441.0101,766.1601 " fill="none" id="Sistema-to-Weather" style="stroke:#181818;stroke-width:3.125;"/><polygon fill="#181818" points="459.6875,767.8082,432.7701,752.8845,444.123,766.4348,430.5726,777.7877,459.6875,767.8082" style="stroke:#181818;stroke-width:3.125;"/><text fill="#000000" font-family="Arial" font-size="34.375" lengthAdjust="spacing" textLength="387.5" x="128.875" y="629.4266">Solicita clima y pronostico</text></g><!--reverse link Sistema to Weather--><g id="link_Sistema_Weather"><path d="M1484.3797,496.0147 C1350.0047,493.0147 806.125,487.6207 675.75,594.0582 C635.9375,626.5582 622.5625,686.1207 618.1875,728.402 " fill="none" id="Sistema-backto-Weather" style="stroke:#181818;stroke-width:3.125;"/><polygon fill="#181818" points="1503.125,496.4332,1475.286,483.3086,1487.5039,496.0845,1474.728,508.3024,1503.125,496.4332" style="stroke:#181818;stroke-width:3.125;"/><text fill="#000000" font-family="Arial" font-size="34.375" lengthAdjust="spacing" textLength="325" x="678.875" y="629.4266">Datos meteorologicos</text></g><!--link Sistema to Cloud--><g id="link_Sistema_Cloud"><path d="M1502.6563,498.277 C1405.625,502.4957 1097.9375,521.5582 1038.25,594.0582 C1000.2813,640.2145 1037.846,681.0655 1092.7522,717.503 " fill="none" id="Sistema-to-Cloud" style="stroke:#181818;stroke-width:3.125;"/><polygon fill="#181818" points="1108.375,727.8707,1091.8527,701.9039,1095.356,719.2309,1078.029,722.7343,1108.375,727.8707" style="stroke:#181818;stroke-width:3.125;"/><text fill="#000000" font-family="Arial" font-size="34.375" lengthAdjust="spacing" textLength="231.25" x="1041.375" y="629.4266">Sube imagenes</text></g><!--reverse link Sistema to Cloud--><g id="link_Sistema_Cloud"><path d="M1486.1324,519.9045 C1452.3511,537.092 1412.5313,559.4957 1369.5,594.0582 C1319.25,634.4332 1269.6563,689.2457 1236.75,728.277 " fill="none" id="Sistema-backto-Cloud" style="stroke:#181818;stroke-width:3.125;"/><polygon fill="#181818" points="1502.8438,511.402,1472.1084,513.0149,1488.9176,518.4874,1483.4451,535.2967,1502.8438,511.402" style="stroke:#181818;stroke-width:3.125;"/><text fill="#000000" font-family="Arial" font-size="34.375" lengthAdjust="spacing" textLength="218.75" x="1372.625" y="629.4266">URL persistida</text></g><!--link Sistema to FCM--><g id="link_Sistema_FCM"><path d="M1557.3125,522.5895 C1587.25,551.9645 1639.1875,601.027 1688.25,637.8082 C1721.6875,662.8707 1743.7966,677.8825 1779.0154,699.4763 " fill="none" id="Sistema-to-FCM" style="stroke:#181818;stroke-width:3.125;"/><polygon fill="#181818" points="1795,709.277,1777.5568,683.9195,1781.6795,701.1097,1764.4892,705.2324,1795,709.277" style="stroke:#181818;stroke-width:3.125;"/><text fill="#000000" font-family="Arial" font-size="34.375" lengthAdjust="spacing" textLength="346.875" x="1691.375" y="629.4266">Envia notificacion push</text></g><!--reverse link Sistema to FCM--><g id="link_Sistema_FCM"><path d="M1579.9889,498.6419 C1679.6764,502.0794 1984.8125,518.3395 2047.625,594.0582 C2078.3125,631.0582 2049.25,674.3082 2010.375,709.4332 " fill="none" id="Sistema-backto-FCM" style="stroke:#181818;stroke-width:3.125;"/><polygon fill="#181818" points="1561.25,497.9957,1588.9275,511.4576,1576.8657,498.5342,1589.7891,486.4724,1561.25,497.9957" style="stroke:#181818;stroke-width:3.125;"/><text fill="#000000" font-family="Arial" font-size="34.375" lengthAdjust="spacing" textLength="343.75" x="2063.25" y="629.4266">Estado o token invalido</text></g><!--reverse link Sistema to Cron--><g id="link_Sistema_Cron"><path d="M1579.2799,497.6583 C1714.6236,499.2833 2273.125,510.8707 2428.875,594.0582 C2485.5,624.277 2529.6875,684.9332 2555.75,728.0895 " fill="none" id="Sistema-backto-Cron" style="stroke:#181818;stroke-width:3.125;"/><polygon fill="#181818" points="1560.5313,497.4332,1588.5042,510.27,1576.1551,497.6208,1588.8043,485.2718,1560.5313,497.4332" style="stroke:#181818;stroke-width:3.125;"/><text fill="#000000" font-family="Arial" font-size="34.375" lengthAdjust="spacing" textLength="262.5" x="2488.25" y="629.4266">Ping diario /health</text></g><!--link Sistema to Cron--><g id="link_Sistema_Cron"><path d="M1560.4375,497.152 C1737.7813,497.2457 2687.5625,502.0582 2772.625,594.0582 C2816.5313,641.527 2770.6479,683.0596 2705.8354,718.9971 " fill="none" id="Sistema-to-Cron" style="stroke:#181818;stroke-width:3.125;"/><polygon fill="#181818" points="2689.4375,728.0895,2720.0959,725.3828,2703.1024,720.5125,2707.9728,703.519,2689.4375,728.0895" style="stroke:#181818;stroke-width:3.125;"/><text fill="#000000" font-family="Arial" font-size="34.375" lengthAdjust="spacing" textLength="143.75" x="2788.25" y="629.4266">HTTP 200</text></g><!--SRC=[TLJRRjD047ttLupA0wtKz9BI2n52IjD4854KqLOy048JUs9FizcrTjSjBUBV6Q_jseaXKYBbpDapSsPcrxDN15UCgSKrGa8G6-tfbpSmWBb2xTrFpFCeSYlMEGe9afpXvEYeWxWC4_F8EeKbAaTTBYsnK7uccfznJJ2sZEhVyHj-9ZW-xWIrISXH3iFJ3cXHhqhmpGP8iKUTYfFV4SZd4kDLQasXaubHniAhsVdixUoiYXcRaAtnuVJYylGyu6KD3NfsCZovYFvqCiHiu__BTsGsv8ylJwV3eotvnumzYNZq6iQnDvOSPCKQjN6mksI5u8gSB1kx5xM-TkvSWG9-rvPITjvAntS07THubpfErgnhZWsaW9G9RmGccNDCMi8ggctjj9CE_8RM62jFadtWcAL8MGwoRRMibw7QVI0DYZNXHjrV2Nr6TZp_U12RTL2leIvheaoHi4Rx51ZXRpS-OqiBT5H5lkjhSWvJsRX0dqskk-JO6ZsuDui3OwluH83ImypOPxIG6rSwqRXcQOE1NQp7WDRo0lV1lNZ51TwRlQXkCWo-PPmaf7zOJZC_gFjQ- -b5AnVXjnShIvPl_qnJgYhkpSjquTtWVJEKjXYvSxh5OIGpSc8B3cKc3-8ii0uXBnQAOumQtg38vLIZCe8hz9BfIQwRvwKGozQGwnGHN6wKK27z0gxbnjeW87bbfJrfhfgybRqI6C4SDId9dSW392lbEJQTnAwtSwrCdRlflPWtufAzxBPY8Jn1Bgsi9Lyc59AtzLRMr-J9MBcRgN35-7QEQeAIeLWGY7PAPN_gkMuftdtv179xdG2SO5-hdFa8flg1SQFXCYMNLHknfJXrNkun6F1c9JTCHekA4sbJkIezzhnyXQMROVGPeV9PtqzvS0GVRc_dC9I7_2y0]--></g></svg>